<svg xmlns="http://www.w3.org/2000/svg" xmlns:xlink="http://www.w3.org/1999/xlink" viewBox="0 0 423.45 76.25"><defs><style>.cls-1{fill:none;}.cls-2,.cls-5{fill:#fff;}.cls-3{fill:#606060;}.cls-4{clip-path:url(#clip-path);}.cls-5{fill-rule:evenodd;}.cls-6{fill:#cfcecf;}</style><clipPath id="clip-path"><path class="cls-1" d="M298.86,41.73h-9.32l.16-.37q2.07-4.55,4.16-9.08a.33.33,0,0,1,.64,0c.38.88.71,1.78,1.12,2.66,1,2.13,2,4.24,3,6.37C298.71,41.43,298.77,41.56,298.86,41.73Z"/></clipPath></defs><title>marg +iitr combine 1</title><g id="Layer_2" data-name="Layer 2"><g id="Layer_1-2" data-name="Layer 1"><g id="Layer_2-2" data-name="Layer 2"><g id="Layer_1-2-2" data-name="Layer 1-2"><path class="cls-2" d="M241.05,32.33c.6-.1.59-.09.83.43q4,8.93,7.93,17.85a.43.43,0,0,0,.45.31h7.17a.41.41,0,0,0,.43-.29c.45-1,.92-2,1.37-3,2.22-4.95,4.67-9.8,6.62-14.87.22-.57.24-.57.84-.44V50.89H273V29.23H262.59a.56.56,0,0,0-.6.4q-3.71,8.64-7.43,17.29c-.25.59-.25.59-.91.52-.43-1.16-.84-2.33-1.29-3.47-2.05-4.84-4.16-9.67-6.2-14.5-.09-.22-.24-.23-.43-.23H235.27V50.9h5.78ZM373,42.53a6.2,6.2,0,0,1-4.46,5.31,13.62,13.62,0,0,1-8.65-.15,7,7,0,0,1-4.39-4.07,9.61,9.61,0,0,1-.58-4.57,7.12,7.12,0,0,1,4.69-6.41,13.48,13.48,0,0,1,9.1-.26,5.44,5.44,0,0,1,3.61,3.27c.15.38.34.42.7.37,1.33-.19,2.66-.36,4-.54l1.95-.29a8.13,8.13,0,0,0-2.67-3.33,15.89,15.89,0,0,0-7.36-2.7,32.24,32.24,0,0,0-7.54-.16,20.48,20.48,0,0,0-7.67,2.09c-3.34,1.75-5.59,4.33-5.84,8.26a9.6,9.6,0,0,0,1.67,6.45,11.87,11.87,0,0,0,6.09,4.32A24.81,24.81,0,0,0,368,51a10.57,10.57,0,0,0,6-3h.1c.21.92.45,1.84.65,2.77,0,.25.15.3.39.3h4.08V39.65H364.09v2.88ZM316,29.2V50.87h6.46V41.22h6.77a.71.71,0,0,1,.64.31l7.26,9.17a.58.58,0,0,0,.55.28h6.79l-8.78-10.33,1.09-.23a11.78,11.78,0,0,0,4.77-2,4.17,4.17,0,0,0,.83-5.84,4.08,4.08,0,0,0-.83-.83,8.76,8.76,0,0,0-3.21-1.54,29.92,29.92,0,0,0-8.1-.94H316.4Zm-5.74,21.67-.19-.38-11.41-21a.52.52,0,0,0-.55-.31h-7.24a.61.61,0,0,0-.63.38q-5.62,10.49-11.29,20.94c-.06.11-.11.23-.17.35h6a.56.56,0,0,0,.39-.27c1-1.92,2-3.84,3-5.77a.54.54,0,0,1,.54-.32h11a.53.53,0,0,1,.56.35c1,1.91,1.94,3.81,2.9,5.72a.46.46,0,0,0,.5.31h1.95Zm-145,15.55h.09v9.4h1.2V65.17c0-.41-.11-.52-.5-.48a5.75,5.75,0,0,1-.83,0,.39.39,0,0,0-.47.29v0c-.3.84-.62,1.67-.93,2.5l-1.27,3.38c-.09-.21-.15-.34-.2-.49L160.26,65c0-.12-.18-.3-.28-.31h-1.46V75.82h1.09V66.45a.91.91,0,0,1,.22.33c.72,1.9,1.45,3.79,2.16,5.69a.53.53,0,0,0,.69.28.5.5,0,0,0,.27-.28c.46-1.24,1-2.5,1.42-3.72Zm19.54,9.4V64.7h-1.43a.44.44,0,0,0-.29.24c-.17.41-.31.83-.47,1.24l-1.76,4.7c-.08-.19-.14-.32-.19-.45L178.55,65c-.05-.13-.17-.3-.27-.3h-1.44V75.82h1.08V66.44a1.23,1.23,0,0,1,.23.4q1.07,2.79,2.12,5.58c.09.24.18.38.49.38s.42-.13.52-.39q1-2.56,2-5.14c.1-.27.21-.54.32-.83h.08v9.38Zm47-2.2h-.08l-.23-.52q-1.72-4-3.46-8.09c0-.11-.16-.3-.24-.3H226V75.82h1.11V66.13a21.93,21.93,0,0,1,1,2.19q1.53,3.59,3.08,7.18c.06.14.18.32.3.33h1.3V64.72h-1.08Zm32.77,2.2V64.72h-1.1V73.6a1.11,1.11,0,0,1-.28-.43c-1.16-2.7-2.31-5.41-3.47-8.11-.05-.13-.16-.34-.25-.35h-1.74V75.82h1.1V66.09a.9.9,0,0,1,.23.32q1.75,4.17,3.54,8.26c.17.4.28.94.59,1.13s.83,0,1.31,0Zm-77.76-5.57h-.11a25,25,0,0,0,.54,2.87,3.79,3.79,0,0,0,3.6,2.95,3.73,3.73,0,0,0,3.79-2.75,9,9,0,0,0,0-6.24,3.83,3.83,0,0,0-7.28,0A8.17,8.17,0,0,0,186.79,70.25Zm197.61,1.3h2.36v1.77c0,1.06,0,1.06-1.05,1.32a3.27,3.27,0,0,1-4.17-2,6.69,6.69,0,0,1,0-4.94,2.94,2.94,0,0,1,3.13-2,4.24,4.24,0,0,1,2.65,1.1c.16.14.34.26.55.43V65.71a.47.47,0,0,0-.22-.35,11.23,11.23,0,0,0-1.92-.75,4.43,4.43,0,0,0-5.5,3l-.06.22a8.63,8.63,0,0,0,.06,5.08,4.16,4.16,0,0,0,2.92,3,5.92,5.92,0,0,0,4.61-.83.49.49,0,0,0,.12-.36V70.19h-3.56Zm13.79-1a10,10,0,0,0,.15,1.51,5.21,5.21,0,0,0,1.6,3.18,3.79,3.79,0,0,0,5.35-.47,3.55,3.55,0,0,0,.63-1.06,8.87,8.87,0,0,0,.13-6.53,3.72,3.72,0,0,0-3.65-2.71,3.81,3.81,0,0,0-3.69,2.69,9.54,9.54,0,0,0-.56,3.39ZM235.31,75.82c1.12,0,2.23.05,3.33,0A4.17,4.17,0,0,0,242.42,73a7.22,7.22,0,0,0,.09-5.1,4.19,4.19,0,0,0-3.69-3c-1.15-.1-2.3,0-3.44-.06a.08.08,0,0,0-.07,0Zm115.34-4.39H352a.51.51,0,0,1,.53.28c.87,1.3,1.75,2.6,2.63,3.88.08.11.19.26.3.26h1.44L353.53,71a3.29,3.29,0,0,0,1.57-1.79,4.62,4.62,0,0,0,.18-2.12,2.46,2.46,0,0,0-2.08-2.24c-1.21-.14-2.5-.09-3.69-.13h-.07V75.82h1.17Zm-153.6-6.67V75.82h1.19V71.4h1.33a.55.55,0,0,1,.54.29c.83,1.3,1.75,2.59,2.63,3.88.07.1.17.26.26.26h1.48L201.1,71a3.32,3.32,0,0,0,1.83-3.09,2.69,2.69,0,0,0-2.34-3.11,34.83,34.83,0,0,0-3.54,0ZM394.12,71a3.51,3.51,0,0,0,1.8-3.63,2.56,2.56,0,0,0-2.21-2.55,25.12,25.12,0,0,0-2.88-.11h-.77V75.82h1.18V71.4h1.24a.65.65,0,0,1,.67.35c.83,1.29,1.74,2.56,2.61,3.84.07.1.18.24.27.25h1.45Zm-78.49,4.83L312.25,71A3.52,3.52,0,0,0,314,67a2.43,2.43,0,0,0-2.12-2.24c-1.21-.14-2.44-.09-3.67-.12h-.05V75.82h1.16V71.41h1.24a.69.69,0,0,1,.7.36c.84,1.28,1.73,2.55,2.59,3.82.09.11.22.25.35.26C314.67,75.87,315.1,75.82,315.63,75.82Zm15.2-8.77V65.53a.42.42,0,0,0-.3-.44,6.73,6.73,0,0,0-3-.62,3.17,3.17,0,0,0-3.19,2.76,2.94,2.94,0,0,0,2.28,3.48l.22,0c.69.16,1.39.32,2.07.52a1.34,1.34,0,0,1,1,.83,1.87,1.87,0,0,1-1.09,2.41,1.9,1.9,0,0,1-.36.09,4.33,4.33,0,0,1-3.61-1l-.55-.46v1.6a.42.42,0,0,0,.27.45,6.52,6.52,0,0,0,3.78.7,3.32,3.32,0,0,0,2.89-3.08,2.73,2.73,0,0,0-2.3-3.2c-.7-.2-1.42-.34-2.13-.53a1.37,1.37,0,0,1-1-.77,1.77,1.77,0,0,1,.76-2.39,1.39,1.39,0,0,1,.26-.1,3.27,3.27,0,0,1,1.86,0,4.72,4.72,0,0,1,2.23,1.22Zm35.93-2.34V75.82h1.18v-5.4h4.51v5.4h1.16V64.72h-1.18V69h-4.51V64.71ZM316.81,75.82h5.9v-1.3H318V70.35h4.69v-1.3H318V66h4.69V64.71h-5.9ZM281.9,69.06V66h4.71V64.71h-5.89V75.82h5.88V74.51h-4.69V70.35h4.7V69.07Zm52.49,1.31h4.69V69.05h-4.73V66H339V64.72h-5.87v11.1H339v-1.3h-4.69ZM174.88,64.71H169V75.82h5.89V74.53H170.2V70.36h4.69v-.93c0-.3-.07-.38-.37-.38h-4.33V66h4.69Zm81.41,11.11a1.79,1.79,0,0,0-.11-.47l-2.82-9.53c-.1-.37-.14-.87-.39-1.06s-.75,0-1.14-.08-.42.07-.51.37c-1,3.49-2,7-3.06,10.44,0,.12-.06.23-.08.35h1.18a1.52,1.52,0,0,1,.11-.38c.24-.83.46-1.66.71-2.44a.35.35,0,0,1,.28-.27h3.69c.3,1,.59,2.07.89,3.09Zm-31.66,0v-.15l-3.15-10.75a.31.31,0,0,0-.36-.25h0a7.21,7.21,0,0,1-.93,0,.42.42,0,0,0-.49.36q-1.51,5.19-3,10.36a2.41,2.41,0,0,1-.1.43h1.19l.89-3.1h3.67c.1,0,.25.16.29.27.28.93.55,1.86.83,2.81Zm123.47,0-.1-.37-2.9-9.63c-.11-.37-.13-.89-.38-1.07s-.77-.06-1.16-.09-.43.08-.51.37c-.79,2.72-1.6,5.44-2.4,8.17l-.73,2.62h.89c.28,0,.35-.07.41-.3.22-.83.47-1.67.69-2.5.07-.25.16-.36.45-.36h3.2A.39.39,0,0,1,346,73v0c.25.93.53,1.84.79,2.77Zm60.24-11.11v5.44a26.17,26.17,0,0,0,.09,2.66,3.23,3.23,0,0,0,2.82,3.24A3.11,3.11,0,0,0,415,73.69l0,0a7.55,7.55,0,0,0,.24-1.77V65a2.51,2.51,0,0,0,0-.27H414v6.64a10.85,10.85,0,0,1-.09,1.4,2.17,2.17,0,0,1-4.32.18v0a9.51,9.51,0,0,1-.12-1.51V64.71ZM273.82,75.82c-.08-.17-.14-.29-.21-.42-.91-1.66-1.8-3.33-2.72-4.92a.55.55,0,0,1,0-.6q1.37-2.4,2.71-4.8c.07-.12.13-.24.22-.42h-.91a.53.53,0,0,0-.57.35c-.69,1.27-1.39,2.49-2.08,3.8l-.22.36-.21-.37-2-3.81c-.07-.13-.2-.29-.31-.3q-.62,0-1.23,0c.09.18.15.31.22.42.89,1.61,1.77,3.23,2.67,4.83a.62.62,0,0,1,0,.67c-.93,1.6-1.83,3.22-2.74,4.83l-.21.4h.92a.5.5,0,0,0,.55-.31c.7-1.31,1.43-2.61,2.13-3.91l.22-.36c.78,1.47,1.53,2.88,2.3,4.28.07.12.2.27.32.28A11.81,11.81,0,0,0,273.82,75.82ZM417.58,64.76V75.82h1.19V71.65h1.45a3.09,3.09,0,0,0,3-2.23,4.56,4.56,0,0,0,.15-2.17,2.73,2.73,0,0,0-2.45-2.49A31.2,31.2,0,0,0,417.58,64.76Zm-52.49,2.5v-.61c0-1.3,0-1.3-1.21-1.78a4.17,4.17,0,0,0-5.69,2.3,8.58,8.58,0,0,0,0,6.38A3.68,3.68,0,0,0,361.06,76a5.28,5.28,0,0,0,3.88-.83c.05,0,.12-.09.12-.14V73.35a14.41,14.41,0,0,1-1.44,1,2.92,2.92,0,0,1-4-.91,2.5,2.5,0,0,1-.31-.66,6.9,6.9,0,0,1,0-5.19,2.78,2.78,0,0,1,3.53-1.73l.07,0A5.16,5.16,0,0,1,365,67.3ZM290.62,66v9.85h1.15V66H295V64.73h-7.6V66ZM212,64.66h-.83a.53.53,0,0,0-.6.35c-.6,1.26-1.23,2.5-1.85,3.74-.14.28-.28.55-.44.84-.1-.18-.17-.29-.23-.42-.7-1.42-1.39-2.82-2.1-4.23-.06-.12-.17-.28-.26-.29h-1.21l1.75,3.52a14.85,14.85,0,0,1,1.36,2.88,15.27,15.27,0,0,1,.07,3.24v1.49h1.21V71.25a1.53,1.53,0,0,1,.16-.66c.92-1.84,1.85-3.67,2.77-5.5a1.55,1.55,0,0,1,.15-.39Zm86.91,5-.25-.45c-.69-1.4-1.37-2.8-2.07-4.17-.06-.12-.18-.29-.29-.3a11.41,11.41,0,0,0-1.17,0c.08.18.13.31.19.43.94,1.89,1.88,3.78,2.8,5.67a1.54,1.54,0,0,1,.16.67v4.32h1.21V71.28a1.71,1.71,0,0,1,.15-.63c.92-1.85,1.87-3.7,2.8-5.54.06-.12.11-.25.19-.42h-.94a.42.42,0,0,0-.46.27c-.28.61-.59,1.22-.89,1.82Zm-22.63-3.83v8.9h-1.12v1.1h3.52V74.7h-1.11V65.82h1.12V64.73h-3.53v1.09Z"/><path class="cls-2" d="M117.64,53.79c.08-.37.16-.76.26-1.12a5.05,5.05,0,0,1,5-3.78,4.47,4.47,0,0,1,2.49.83l.35.25,5.46-7.7a2.22,2.22,0,0,0-.24-.17,5.49,5.49,0,0,1-.21-9,.57.57,0,0,0,.29-.6L130.41,25v-.13c-.22-.05-.46-.09-.68-.16a2.77,2.77,0,0,1-2.1-2.84A2.89,2.89,0,0,1,130,19.21a3.32,3.32,0,0,1,2.71.58L142.34,9a4.81,4.81,0,0,1-1.05-3.26,4.65,4.65,0,0,1,2.25-3.9,4.05,4.05,0,0,1,5.57,1.35,3.5,3.5,0,0,1,.26.51c.08.15.15.31.23.5L168.89,0a.84.84,0,0,1,.05.17c.11.75.11.74-.64.9L150.13,5l-.34.08c.13,2.17-.52,3.94-2.5,5a3.86,3.86,0,0,1-4.42-.52l-9.72,10.73c1.17,1.67.38,4.07-2.21,4.52l.65,7.79A4.79,4.79,0,0,1,137.25,34l2.88-3.64q6-7.49,11.93-15a.58.58,0,0,0,.08-.82v0a3.53,3.53,0,0,1,1.27-4.83,3,3,0,0,1,.71-.31,2.88,2.88,0,0,1,2.92.74.48.48,0,0,0,.67.07l12.12-6.14c.58-.29.58-.29,1,.32l-13.08,6.66a3.73,3.73,0,0,1,.3,2.5,3.32,3.32,0,0,1-2.1,2.5c-.18.08-.3.13-.29.38q.24,7,.46,14v.2a2.5,2.5,0,0,1,2.1,1l17-13.33c-.9-3.13-.22-5.47,2-6.86a4.92,4.92,0,0,1,6.4,1l.34-.18L198.51,4c.16-.09.43-.13.29-.47L182,1.56a7,7,0,0,1,.18-.89c0-.08.24-.15.37-.14,1,.1,1.89.22,2.83.34l8.23,1,4.94.58.42,0c.13-.27.23-.52.35-.76A2.88,2.88,0,0,1,202.36.21a3,3,0,0,1,2.32,2.5,3.51,3.51,0,0,1-.75,2.84l.23.29c2.31,2.57,4.64,5.13,6.94,7.7a.52.52,0,0,0,.66.19A2.87,2.87,0,0,1,215,14.81a3.54,3.54,0,0,1-.35,4.58,2.78,2.78,0,0,1-2.91.76,3,3,0,0,1-2.13-2.44,3.44,3.44,0,0,1,.91-3.2,1.63,1.63,0,0,0,.17-.2l-7.38-8.17a2.86,2.86,0,0,1-3.9-.89l-15,8.38a5.55,5.55,0,0,1-.07,4.53A5.13,5.13,0,0,1,180.85,21l1.08,4q1.38,5.07,2.71,10.14c.09.33.24.41.55.45a6,6,0,0,1,1.32.3.4.4,0,0,0,.5-.11l9.16-10.68c.19-.2.36-.41.64-.74a1.33,1.33,0,0,1-.35-.2,2.87,2.87,0,0,1,.21-4.06l.12-.1a2.44,2.44,0,0,1,3.88,1.66,2.83,2.83,0,0,1-.26,1.83.52.52,0,0,0,.06.65q3.92,5,7.8,10l1.28,1.66a2.7,2.7,0,0,1,2.5-.1,3,3,0,0,1,1.56,2.07l7.91-4.17c.23.6.22.63-.29.89-2.37,1.25-4.73,2.5-7.1,3.7a.86.86,0,0,0-.52.74,2.84,2.84,0,0,1-3.1,2.55l-.34,0a2.92,2.92,0,0,1-2.07-2.37,3.31,3.31,0,0,1,.4-2.22.36.36,0,0,0-.05-.48q-4.5-5.73-8.95-11.47a.35.35,0,0,0-.42-.14c-.51.12-1,.18-1.66.27l-10,11.57.36.46a4.34,4.34,0,0,1,.68,3.61.46.46,0,0,0,.12.57l12.5,11.35.21.16a5.65,5.65,0,0,1,3.27-2.89,4.65,4.65,0,0,1,2.88,0c2.37.7,3.66,2.67,3.89,6h211v1.59H211.79A.75.75,0,0,0,211,58a5.4,5.4,0,0,1-3.72,3.34,5,5,0,0,1-5.44-2.14,6.18,6.18,0,0,1-1-4.48.81.81,0,0,0-.27-.83q-6.27-5.67-12.49-11.36l-.27-.23a3.6,3.6,0,0,1-4.67.93L177,54.52a3.22,3.22,0,0,1,.71,3.34,2.88,2.88,0,0,1-2.82,2,2.85,2.85,0,0,1-2.61-2.44c0-.27-.14-.37-.42-.38q-5.28,0-10.57-.14c-.27,0-.37.07-.43.34a3.54,3.54,0,0,1-3.54,2.86,3.28,3.28,0,0,1-2.56-1.37l-.23-.32h-.07l-.31.18q-5.13,3-10.23,6.11a.84.84,0,0,0-.37.42,2.87,2.87,0,0,1-3.58,1.92,2.09,2.09,0,0,1-.35-.13,3,3,0,0,1-1.37-4,1.28,1.28,0,0,1,.11-.2,1.16,1.16,0,0,0,.16-1q-1.75-9.16-3.49-18.33l-.16-.83a5,5,0,0,1-2.88-.06l-5.64,8a5.7,5.7,0,0,1-.21,7.49l11.79,13.34-.5.45L125.65,58.5a14.51,14.51,0,0,1-1.94.83,4.83,4.83,0,0,1-5.81-3.51c-.11-.4-.18-.79-.26-1.16Zm58-34.88-.17.12L158.79,32a.43.43,0,0,0-.15.54,2.84,2.84,0,0,1-1.38,3.25c-.18.08-.36.14-.55.21,0,.33.08.65.11,1l1,8.41q.4,3.57.83,7.14a.62.62,0,0,0,.27.4,3.69,3.69,0,0,1,1.9,2.42c.06.25.09.5.15.77h.32l10.45.15c.34,0,.48-.06.59-.41a2.77,2.77,0,0,1,2.34-2.09,8.23,8.23,0,0,1,1.57.09c-.07.05-.05.05-.05,0q3.06-5.55,6.08-11.1a.46.46,0,0,0-.05-.41,4.31,4.31,0,0,1,.72-6c.14-.1.28-.2.43-.29a.34.34,0,0,0,.17-.44q-1.91-7.05-3.78-14.11c-.06-.25-.16-.32-.41-.34a4.88,4.88,0,0,1-3.55-2ZM153,15.72v-.11a2.34,2.34,0,0,0-.25.3L138,34.49a.46.46,0,0,0-.07.58A5.48,5.48,0,0,1,136,42a.38.38,0,0,0-.2.46q1.66,8.58,3.26,17.15c.12.61.24,1.22.37,1.85a2.8,2.8,0,0,1,2.61,0,3,3,0,0,1,1.53,2.09l.41-.23c1.15-.7,2.32-1.4,3.49-2.09l6.27-3.77A.39.39,0,0,0,154,57h0a5.68,5.68,0,0,1,0-1,3.66,3.66,0,0,1,2.85-3.33,7.18,7.18,0,0,1,1-.11v-.39c-.12-1-.23-1.94-.35-2.92-.32-2.8-.65-5.61-1-8.41-.17-1.5-.35-3-.53-4.51a.42.42,0,0,0-.24-.32,2.65,2.65,0,0,1-2-2.44,2.77,2.77,0,0,1,1.51-2.73c.25-.13.25-.29.24-.5l-.41-13.46v-.49Z"/><path class="cls-2" d="M241.05,32.33V50.88h-5.78V29.22h10.46c.19,0,.34,0,.43.23,2.06,4.84,4.16,9.66,6.2,14.5.49,1.14.84,2.32,1.29,3.47.66.07.66.07.91-.52q3.72-8.62,7.43-17.29a.56.56,0,0,1,.6-.4H273V50.87h-6.28V32.34c-.61-.13-.63-.13-.84.44-2,5.07-4.4,9.92-6.62,14.87-.45,1-.92,2-1.37,3a.41.41,0,0,1-.43.29h-7.17a.43.43,0,0,1-.45-.31q-4-9-7.94-17.85C241.64,32.24,241.65,32.23,241.05,32.33Z"/><path class="cls-2" d="M373,42.53h-8.89V39.65h15.08V51h-4.08c-.23,0-.34-.05-.39-.3-.2-.92-.43-1.85-.65-2.76H374a10.54,10.54,0,0,1-6,3,24.78,24.78,0,0,1-12.35-.84,11.81,11.81,0,0,1-6.1-4.25,9.61,9.61,0,0,1-1.67-6.45c.28-3.94,2.5-6.51,5.83-8.26A20.21,20.21,0,0,1,361.34,29a31.71,31.71,0,0,1,7.54.16,15.73,15.73,0,0,1,7.35,2.72,8.07,8.07,0,0,1,2.68,3.33l-2,.29c-1.33.18-2.67.35-4,.54-.36,0-.55,0-.7-.37a5.43,5.43,0,0,0-3.62-3.27,13.45,13.45,0,0,0-9.09.26,7.12,7.12,0,0,0-4.69,6.41,9.37,9.37,0,0,0,.58,4.57,7,7,0,0,0,4.39,4.07,13.62,13.62,0,0,0,8.65.15A6.21,6.21,0,0,0,373,42.53Z"/><path class="cls-2" d="M316,29.22h14.27a29.87,29.87,0,0,1,8.1.94,8.76,8.76,0,0,1,3.21,1.54,4.17,4.17,0,0,1,.84,5.84,4.4,4.4,0,0,1-.84.83,11.56,11.56,0,0,1-4.79,2.05l-1.1.23,8.79,10.23h-6.79a.57.57,0,0,1-.55-.28q-3.63-4.56-7.26-9.17a.71.71,0,0,0-.64-.31h-6.77v9.77H316Zm6.48,9.16h6.74a33.71,33.71,0,0,0,3.62-.27,5.7,5.7,0,0,0,2.8-1,2.35,2.35,0,0,0,.89-2.56,2.73,2.73,0,0,0-1.75-1.72,12.46,12.46,0,0,0-4.68-.75h-7.62Z"/><path class="cls-2" d="M165.25,66.47l-.84,2.28c-.47,1.24-1,2.5-1.41,3.72a.53.53,0,0,1-.69.28.48.48,0,0,1-.28-.28c-.71-1.9-1.44-3.79-2.16-5.69a.89.89,0,0,0-.21-.33v9.37h-1.14V64.7H160c.1,0,.23.19.28.31l2.09,5.39c.05.14.11.27.2.48l1.27-3.39c.31-.84.63-1.67.93-2.5a.39.39,0,0,1,.44-.33h0a3.84,3.84,0,0,0,.83,0c.39,0,.51.07.5.49V75.82h-1.21V66.49Z"/><path class="cls-2" d="M184.8,75.82h-1.16V66.47h-.08c-.11.28-.22.54-.32.83-.66,1.72-1.31,3.43-2,5.15-.1.25-.21.39-.52.39s-.4-.14-.49-.39l-2.12-5.58a1.23,1.23,0,0,0-.23-.4v9.35h-1.08V64.7h1.44c.1,0,.22.17.27.3q1.06,2.7,2.11,5.42c.05.13.11.26.19.45l1.78-4.68c.15-.42.3-.83.47-1.24a.42.42,0,0,1,.28-.24h1.44Z"/><path class="cls-2" d="M231.78,73.62v-8.9h1.09v11.1h-1.3c-.12,0-.24-.19-.3-.33-1-2.38-2.06-4.78-3.09-7.18a21,21,0,0,0-1-2.2v9.71H226V64.7h1.74c.08,0,.19.19.24.31,1.16,2.68,2.31,5.38,3.46,8.08l.23.52Z"/><path class="cls-2" d="M264.55,75.82h-.07a3.82,3.82,0,0,1-1.31,0c-.32-.15-.42-.73-.59-1.13q-1.8-4.17-3.54-8.26a.94.94,0,0,0-.23-.33v9.72h-1.1V64.7h1.74c.09,0,.2.21.25.35l3.47,8.1a1.14,1.14,0,0,0,.28.44V64.72h1.1Z"/><path class="cls-2" d="M186.79,70.25a8.36,8.36,0,0,1,.54-3.17,3.84,3.84,0,0,1,7.29,0,9,9,0,0,1,0,6.24,3.72,3.72,0,0,1-3.83,2.74,3.81,3.81,0,0,1-3.61-3,27.71,27.71,0,0,1-.54-2.86Zm1.14,0H188a6.4,6.4,0,0,0,.54,2.93A2.55,2.55,0,0,0,191,74.8a2.44,2.44,0,0,0,2.4-1.66,8.59,8.59,0,0,0,.51-2.23,6.7,6.7,0,0,0-.5-3.59,2.63,2.63,0,0,0-1.67-1.52,2.56,2.56,0,0,0-3.2,1.71,1,1,0,0,0,0,.14,21,21,0,0,0-.58,2.59Z"/><path class="cls-2" d="M384.36,71.55V70.26h3.56v4.49a.48.48,0,0,1-.12.35,5.91,5.91,0,0,1-4.61.84,4.18,4.18,0,0,1-2.92-3,8.58,8.58,0,0,1,0-5.09,4.43,4.43,0,0,1,5.34-3.28l.21.06a13.17,13.17,0,0,1,1.92.75.48.48,0,0,1,.22.35v1.57c-.21-.16-.39-.29-.54-.42a4.24,4.24,0,0,0-2.65-1.11,2.94,2.94,0,0,0-3.14,2,6.67,6.67,0,0,0,0,4.93c.65,1.75,2.19,2.45,4.17,2,1-.31,1-.31,1-1.39V71.55Z"/><path class="cls-2" d="M398.15,70.54a9.32,9.32,0,0,1,.52-3.39,3.8,3.8,0,0,1,3.68-2.69A3.73,3.73,0,0,1,406,67.17a8.87,8.87,0,0,1-.13,6.53,3.79,3.79,0,0,1-6,1.53,5.21,5.21,0,0,1-1.6-3.18C398.2,71.47,398.18,70.88,398.15,70.54Zm7.15-.28c-.05-.52-.07-1.06-.15-1.59a5.27,5.27,0,0,0-.29-1,2.73,2.73,0,0,0-1.79-1.84,2.56,2.56,0,0,0-3.2,1.67,7.67,7.67,0,0,0,0,5.46,2.61,2.61,0,0,0,5,0A7.44,7.44,0,0,0,405.3,70.26Z"/><path class="cls-2" d="M235.31,75.82V64.76s0-.05.07-.05c1.14,0,2.29,0,3.44.07a4.18,4.18,0,0,1,3.69,3,7.2,7.2,0,0,1-.09,5.09,4.17,4.17,0,0,1-3.78,2.91ZM236.5,66v8.53h2a3.13,3.13,0,0,0,2.89-2.35,6.75,6.75,0,0,0,0-3.78,3.13,3.13,0,0,0-2.12-2.21,8.39,8.39,0,0,0-2.78-.2Z"/><path class="cls-2" d="M350.65,71.41v4.41h-1.18V64.76h.07c1.23,0,2.5,0,3.7.12a2.44,2.44,0,0,1,2.07,2.24,4.48,4.48,0,0,1-.18,2.12,3.27,3.27,0,0,1-1.6,1.79l3.37,4.86h-1.44c-.11,0-.22-.15-.3-.25-.88-1.3-1.76-2.59-2.63-3.89a.52.52,0,0,0-.53-.28C351.56,71.43,351.14,71.41,350.65,71.41Zm0-5.47V70.1h1.86a1.54,1.54,0,0,0,1.34-1,3,3,0,0,0,.11-2,1.34,1.34,0,0,0-1.08-1c-.7-.07-1.44-.08-2.2-.12Z"/><path class="cls-2" d="M197.05,64.76a34.83,34.83,0,0,1,3.54,0c1.56.16,2.42,1.4,2.34,3.11A3.32,3.32,0,0,1,201.1,71l3.38,4.87H203c-.09,0-.19-.16-.26-.26-.88-1.29-1.77-2.58-2.63-3.88a.55.55,0,0,0-.54-.29h-1.33v4.42h-1.19Zm1.2,1.18v4.28a18.68,18.68,0,0,0,2-.12,1.51,1.51,0,0,0,1.21-1,3,3,0,0,0,.12-2,1.29,1.29,0,0,0-1.12-1.06C199.75,66,199,66,198.25,65.94Z"/><path class="cls-2" d="M394.12,71l3.38,4.83h-1.45c-.09,0-.2-.15-.27-.24-.87-1.28-1.76-2.56-2.62-3.85a.62.62,0,0,0-.66-.34h-1.24v4.43h-1.17V64.7h.77a25.3,25.3,0,0,1,2.89.11,2.55,2.55,0,0,1,2.17,2.55A3.51,3.51,0,0,1,394.12,71Zm-2.86-5v4.16h1.54a1.77,1.77,0,0,0,1.86-1.69v0a4,4,0,0,0,0-1A1.46,1.46,0,0,0,393.33,66a20.42,20.42,0,0,0-2.07,0Z"/><path class="cls-2" d="M315.63,75.82h-1.39c-.13,0-.26-.15-.35-.27-.83-1.26-1.74-2.5-2.59-3.81a.67.67,0,0,0-.7-.36h-1.24v4.44H308.2V64.76h.05c1.23,0,2.46,0,3.67.11A2.45,2.45,0,0,1,314,67.11,3.54,3.54,0,0,1,312.25,71C313.36,72.59,314.47,74.15,315.63,75.82Zm-6.25-5.7H311a1.74,1.74,0,0,0,1.78-1.59,4.09,4.09,0,0,0,0-1.21,1.32,1.32,0,0,0-1-1.21c-.77-.13-1.57-.12-2.37-.18Z"/><path class="cls-2" d="M330.83,67.08a4.77,4.77,0,0,0-2.22-1.19,3.27,3.27,0,0,0-1.86,0,1.77,1.77,0,0,0-1.13,2.24,1.45,1.45,0,0,0,.11.26,1.36,1.36,0,0,0,1,.76c.71.2,1.43.34,2.13.53a2.73,2.73,0,0,1,2.3,3.21A3.33,3.33,0,0,1,328.29,76a6.44,6.44,0,0,1-3.78-.7.43.43,0,0,1-.28-.45v-1.6l.55.46a4.38,4.38,0,0,0,3.65,1A1.88,1.88,0,0,0,330,72.55a1.36,1.36,0,0,0-.1-.36,1.32,1.32,0,0,0-.95-.84c-.69-.2-1.39-.35-2.08-.52a3,3,0,0,1-2.54-3.3c0-.07,0-.14,0-.22a3.16,3.16,0,0,1,3.19-2.75,6.92,6.92,0,0,1,3,.61.42.42,0,0,1,.29.44A13.19,13.19,0,0,0,330.83,67.08Z"/><path class="cls-2" d="M366.76,64.71h1.16V69h4.51V64.72h1.18v11.1h-1.16v-5.4h-4.51v5.4h-1.18Z"/><path class="cls-2" d="M316.81,75.82V64.71h5.9V66H318v3h4.69v1.33H318v4.17h4.69v1.27Z"/><path class="cls-2" d="M281.9,69.07h4.71v1.3h-4.7v4.17h4.69v1.28h-5.88V64.71h5.89V66H281.9Z"/><path class="cls-2" d="M334.35,70.38v4.17H339v1.27h-5.88V64.72H339V66h-4.68v3H339v1.33Z"/><path class="cls-2" d="M174.88,64.71V66h-4.69v3.08h4.34c.3,0,.39.09.37.38s0,.6,0,.93h-4.7v4.17h4.68v1.27H169V64.71Z"/><path class="cls-2" d="M256.29,75.82H255c-.3-1-.59-2-.89-3.1h-3.69c-.1,0-.25.16-.28.28-.25.83-.47,1.62-.71,2.44a1.52,1.52,0,0,1-.11.37h-1.18c0-.11,0-.23.08-.34,1-3.48,2.05-7,3.06-10.45.09-.3.22-.39.51-.36s.88-.12,1.14.07.29.69.39,1.07q1.41,4.76,2.82,9.54C256.22,75.52,256.25,75.67,256.29,75.82Zm-4-9.67h-.09l-1.54,5.31h3.16Z"/><path class="cls-2" d="M224.59,75.82h-1.24c-.26-.95-.53-1.88-.83-2.82,0-.1-.18-.26-.28-.26h-3.68l-.87,3.08H216.5a1.28,1.28,0,0,1,.1-.43q1.52-5.16,3-10.36c.08-.27.2-.38.49-.36a7.22,7.22,0,0,0,.93,0,.32.32,0,0,1,.37.24h0l3.15,10.75S224.59,75.76,224.59,75.82Zm-2.5-4.37c-.51-1.81-1-3.57-1.53-5.34h-.08l-1.54,5.34Z"/><path class="cls-2" d="M348.06,75.82h-1.3c-.25-.92-.53-1.84-.78-2.77a.37.37,0,0,0-.41-.35h-3.25c-.28,0-.37.11-.44.36-.22.84-.47,1.67-.69,2.5-.07.23-.17.32-.41.3s-.56,0-.9,0l.77-2.62c.83-2.73,1.61-5.44,2.4-8.17.08-.29.2-.4.51-.37s.9-.1,1.16.09.27.7.38,1.07q1.42,4.81,2.83,9.63A1.08,1.08,0,0,1,348.06,75.82Zm-2.5-4.38L344,66.11h-.08c-.51,1.77-1,3.53-1.54,5.32Z"/><path class="cls-2" d="M408.34,64.71h1.13v6.68a9.51,9.51,0,0,0,.12,1.51,2,2,0,0,0,2.18,1.92h0a2.09,2.09,0,0,0,2.1-2.06,9.32,9.32,0,0,0,.08-1.4V64.72h1.16a1.26,1.26,0,0,1,0,.27v6.88a7.55,7.55,0,0,1-.24,1.77,3.12,3.12,0,0,1-3.68,2.43l0,0a3.23,3.23,0,0,1-2.8-3.24c-.08-.88-.08-1.77-.09-2.66V64.84S408.32,64.79,408.34,64.71Z"/><path class="cls-2" d="M273.82,75.82c-.4,0-.81,0-1.21,0-.12,0-.25-.16-.32-.28-.76-1.4-1.51-2.81-2.3-4.28l-.21.36c-.71,1.3-1.44,2.6-2.14,3.91a.49.49,0,0,1-.55.31h-.91l.21-.4c.9-1.61,1.8-3.23,2.73-4.83a.59.59,0,0,0,0-.67c-.9-1.6-1.78-3.22-2.67-4.83-.06-.11-.12-.24-.21-.42.4,0,.81,0,1.22,0,.12,0,.24.17.31.3l2.05,3.81.21.37.22-.36c.69-1.27,1.39-2.5,2.08-3.8a.53.53,0,0,1,.57-.35h.91c-.09.18-.15.3-.22.42q-1.33,2.42-2.65,4.83a.54.54,0,0,0,0,.6l2.72,4.93A1.11,1.11,0,0,0,273.82,75.82Z"/><path class="cls-2" d="M417.58,64.76c1.11-.05,2.23-.05,3.34,0a2.76,2.76,0,0,1,2.46,2.5,4.69,4.69,0,0,1-.16,2.17,3.08,3.08,0,0,1-3,2.22h-1.45v4.17h-1.15Zm1.19,5.69a12.86,12.86,0,0,0,1.66-.07,1.69,1.69,0,0,0,1.6-1.29,4.43,4.43,0,0,0,.1-1.58A1.57,1.57,0,0,0,420.65,66a14.74,14.74,0,0,0-1.88,0Z"/><path class="cls-2" d="M365,67.3a5,5,0,0,0-2.15-1.39,2.77,2.77,0,0,0-3.59,1.6l0,.1a7,7,0,0,0,0,5.19,2.91,2.91,0,0,0,3.67,1.88,3.07,3.07,0,0,0,.66-.31A14.11,14.11,0,0,0,365,73.32V75c0,.05-.08.11-.13.14A5.29,5.29,0,0,1,361,76a3.69,3.69,0,0,1-2.88-2.44,8.68,8.68,0,0,1,0-6.38,4.16,4.16,0,0,1,5.69-2.3c1.22.47,1.22.47,1.22,1.78Z"/><path class="cls-2" d="M290.56,66h-3.2V64.73h7.57V66h-3.16v9.82h-1.19Z"/><path class="cls-2" d="M211.9,64.7c-.1.18-.15.31-.21.44q-1.4,2.74-2.78,5.5a1.69,1.69,0,0,0-.16.66v4.52h-1.21V74.33a14,14,0,0,0-.07-3.23,14.12,14.12,0,0,0-1.36-2.89l-1.75-3.52h1.21c.09,0,.2.17.26.29.71,1.41,1.4,2.82,2.1,4.23.06.13.13.24.23.42a8.68,8.68,0,0,1,.45-.83c.61-1.25,1.24-2.5,1.84-3.74a.53.53,0,0,1,.6-.36Z"/><path class="cls-2" d="M298.8,69.67l1.45-2.89c.3-.6.61-1.21.89-1.82a.41.41,0,0,1,.46-.27h.94c-.08.17-.13.3-.19.42-.94,1.84-1.88,3.69-2.8,5.54a1.53,1.53,0,0,0-.15.63v4.54h-1.21V71.45a1.49,1.49,0,0,0-.16-.66c-.92-1.89-1.87-3.78-2.8-5.67-.06-.12-.12-.25-.19-.43a11.42,11.42,0,0,1,1.17,0c.1,0,.23.17.29.3.7,1.4,1.38,2.8,2.07,4.16Z"/><path class="cls-2" d="M276.23,65.82h-1.12V64.73h3.52v1.09h-1.12V74.7h1.12v1.12h-3.52v-1.1h1.14Z"/><path class="cls-3" d="M322.46,38.4V32.07h7.62a12.47,12.47,0,0,1,4.68.76,2.71,2.71,0,0,1,1.75,1.71,2.35,2.35,0,0,1-.89,2.56,5.7,5.7,0,0,1-2.8,1,33.73,33.73,0,0,1-3.62.28c-2.12,0-4.25,0-6.37,0Z"/><path class="cls-3" d="M298.86,41.73h-9.32l.16-.37q2.07-4.55,4.16-9.08a.33.33,0,0,1,.64,0c.38.88.71,1.78,1.12,2.66,1,2.13,2,4.24,3,6.37C298.71,41.43,298.77,41.56,298.86,41.73Z"/><g class="cls-4"><path class="cls-3" d="M310.24,50.92h-6.6a.47.47,0,0,1-.5-.31c-1-1.91-1.94-3.81-2.9-5.72a.53.53,0,0,0-.56-.35h-11a.54.54,0,0,0-.54.32q-1.47,2.89-3,5.76a.58.58,0,0,1-.4.28h-6c.06-.13.11-.24.17-.35q5.64-10.47,11.3-20.94a.59.59,0,0,1,.62-.38h7.24a.52.52,0,0,1,.55.31l11.41,21A1.27,1.27,0,0,0,310.24,50.92Zm-11.38-9.17c-.09-.17-.15-.3-.21-.42-1-2.17-2-4.26-3-6.39-.41-.84-.75-1.78-1.13-2.66a.32.32,0,0,0-.39-.25.34.34,0,0,0-.24.25c-1.4,3-2.78,6-4.17,9.08l-.16.37Z"/></g><path class="cls-3" d="M187.88,70.24a21,21,0,0,1,.58-2.59,2.55,2.55,0,0,1,3.12-1.84h.06a2.62,2.62,0,0,1,1.67,1.53,6.69,6.69,0,0,1,.51,3.59,8.86,8.86,0,0,1-.52,2.22,2.43,2.43,0,0,1-2.4,1.67,2.55,2.55,0,0,1-2.38-1.62,6.38,6.38,0,0,1-.54-2.92Z"/><path class="cls-3" d="M405.3,70.26a7.68,7.68,0,0,1-.45,2.69,2.61,2.61,0,0,1-5,0,7.67,7.67,0,0,1,0-5.46,2.55,2.55,0,0,1,3.2-1.67,2.72,2.72,0,0,1,1.79,1.82,4.87,4.87,0,0,1,.28,1A15.55,15.55,0,0,1,405.3,70.26Z"/><path class="cls-3" d="M236.5,66a8.33,8.33,0,0,1,2.77.2,3.11,3.11,0,0,1,2.13,2.21,6.72,6.72,0,0,1,0,3.77,3.12,3.12,0,0,1-2.89,2.35c-.66,0-1.33,0-2,0Z"/><path class="cls-3" d="M350.68,65.94a18.16,18.16,0,0,1,2.23.14,1.31,1.31,0,0,1,1.09,1,3,3,0,0,1-.12,2,1.54,1.54,0,0,1-1.33,1c-.61,0-1.23,0-1.87,0Z"/><path class="cls-3" d="M198.25,65.94a11.41,11.41,0,0,1,2.21.14,1.29,1.29,0,0,1,1.12,1.06,3,3,0,0,1-.12,2,1.51,1.51,0,0,1-1.21,1c-.65.07-1.32.08-2,.12Z"/><path class="cls-3" d="M391.26,66a18,18,0,0,1,2.08,0,1.47,1.47,0,0,1,1.33,1.42,3.94,3.94,0,0,1,0,1,1.78,1.78,0,0,1-1.84,1.73h-1.57Z"/><path class="cls-3" d="M309.38,70.15V65.93c.83.06,1.6,0,2.37.18a1.33,1.33,0,0,1,1,1.24,4.09,4.09,0,0,1,0,1.21A1.74,1.74,0,0,1,311,70.15C310.46,70.18,310,70.15,309.38,70.15Z"/><path class="cls-3" d="M252.25,66.15l1.53,5.3h-3.16l1.54-5.3Z"/><path class="cls-3" d="M222.09,71.46h-3.15l1.54-5.33h.08C221.07,67.9,221.58,69.65,222.09,71.46Z"/><path class="cls-3" d="M345.55,71.46h-3.17l1.54-5.31H344Z"/><path class="cls-3" d="M418.73,70.45V66a14.9,14.9,0,0,1,1.89,0,1.55,1.55,0,0,1,1.47,1.47,4,4,0,0,1-.1,1.57,1.65,1.65,0,0,1-1.59,1.29A14.84,14.84,0,0,1,418.73,70.45Z"/></g></g><path class="cls-2" d="M65.34,34.62l.18-.07a1,1,0,0,1,.21,0l.06,0,.27.06.21.11a.14.14,0,0,1,.13,0,.54.54,0,0,0,.22.12.49.49,0,0,1,.23.21l.2.07.12.09,0,.13,0,.12v.11a.23.23,0,0,0,.13.17c.13.06.08.05.08.05l.08.13.11.19v.14l.1.12.27.21.53.26.76.08.42,0,.76.24.44.23.23.21.19.25.23.4.08.21,0,.23,0,.21-.1.25-.18.14-.22.09H68.05l-.42.06-.14,0-.09,0-.05,0-.25-.07L64,39.17l-.1-.13L63.8,39l-.07-.1,0-.12.21-.2.15-.06.09-.07.15,0,.13,0,.13-.05.23,0,.23,0,.1,0,0-.16,0-.09v-.47l0,0L65,37.37,65,37.13l-.12,0a.25.25,0,0,0-.12-.1c-.08,0-.07,0-.07,0v-.15l0-.13v-.11l-.08,0-.11-.12,0-.2-.12-.1V36l.06,0,.34-.33a.41.41,0,0,1,0-.12.6.6,0,0,0,0-.14l.09-.07.1,0,.18-.19,0,0a.28.28,0,0,0,0-.12s0,0,0,0a.18.18,0,0,0-.12,0l0,0,.07,0,.12,0a.27.27,0,0,0-.08-.15h.08l.06,0Z"/><path class="cls-2" d="M66.49,35.17a.25.25,0,0,1,0-.07v0c0-.06,0-.06-.08-.08l0,0h0a0,0,0,0,0,0,0,0,0,0,0,0,0,0h0l0,0a.11.11,0,0,1,.06.07v0s0,0,0,0,0,0,0,0l0,0s0,0,0,0v0l0,0h0Z"/><path class="cls-2" d="M65.26,34.69h0a.07.07,0,0,1,.06,0h0a.13.13,0,0,1,0-.06l.1,0h0a.12.12,0,0,1,.08,0h0l.08,0s0,0,0,0h0s0,0,0,0l0,0h0l-.09-.06a.12.12,0,0,0-.08,0l-.14,0h0v0h-.15s0,0,0,0A0,0,0,0,0,65.26,34.69Z"/><path class="cls-2" d="M65.33,35h0l-.06,0s0,0,0,0l0,0h0v0h0a.11.11,0,0,0-.08,0l0,0v0h.07a0,0,0,0,1,0,0s0,0,0,0h0l0,0s0,0,0,0a.13.13,0,0,1,0,.06l0,0h0s0,0,0,0h0l0,0h0v0s0,0,0,0l0,0,0,0S65.34,35,65.33,35Z"/><path class="cls-2" d="M66,35l.09,0s0,0,0,.05l0,0h0l0,0s0,0,0,0h0v0a.05.05,0,0,0,0-.05.07.07,0,0,0-.06,0l0,0,0,0a.13.13,0,0,0-.08,0h0s0,0,0,0h0Z"/><path class="cls-2" d="M66.42,34.79h0a0,0,0,0,1,0,0l-.12,0-.07,0h0s0,0,0,0,0,0,0,0h0a.25.25,0,0,0,.12,0h.25l.07,0h.06v0h0a.2.2,0,0,0-.1-.08h-.07a0,0,0,0,0,0,0s0,0,0,0h0a.18.18,0,0,0-.07-.05h0s0,0,0,0A.05.05,0,0,0,66.42,34.79Z"/><path class="cls-2" d="M65.83,35h0s0,0,0,0l0,0h-.06l-.07,0,0,0s0,0,0,0h.11Z"/><path class="cls-2" d="M65.75,34.58h0l.06,0h0l.12,0a.35.35,0,0,1,.13.08l.06,0a.26.26,0,0,0,.15,0h0s0,0,0,0l-.11,0-.1-.07a.7.7,0,0,0-.17-.09h0a.21.21,0,0,0-.14,0h0v0a0,0,0,0,0,0,0Z"/><path class="cls-2" d="M65,34.84h0l.06,0h.07l0,0h0s0,0,0,0l-.05,0h-.14s0,0,0,0Z"/><polygon class="cls-2" points="65.08 37.51 65.08 37.51 65.08 37.51 65.08 37.51 65.08 37.51 65.08 37.51"/><path class="cls-2" d="M67.13,35.84h0Z"/><path class="cls-2" d="M65.13,36.5l0,0,0,0h0s0,0,0,0a.07.07,0,0,0,0,.05s0,0,0,.07l0,0h0s0,0,0,0a0,0,0,0,0,0,0,.08.08,0,0,0,.07,0h0a.08.08,0,0,0,0-.08s0-.07,0-.09A.15.15,0,0,1,65.13,36.5Z"/><path class="cls-2" d="M65.65,35.28h0l.08-.07a.2.2,0,0,1,.11,0,.35.35,0,0,1,.14,0h0s0,.06,0,.09a.38.38,0,0,1,0,.21.15.15,0,0,1-.13.11v-.08a.41.41,0,0,0,0-.11l-.08,0-.09,0h0a.09.09,0,0,0,0,0,.56.56,0,0,0,0,.12v.05s0,0,0,0,.05,0,.07,0,0,0,0,0l0,0s0,0,0,.07l0,0a.09.09,0,0,1,0,.05.06.06,0,0,0,0,0h0l0,0s0,0,.06,0,0-.05.09-.06l.07,0a.1.1,0,0,0,.06-.08.34.34,0,0,0,0-.1,0,0,0,0,0,0,0s0,0,0,0,0,0,0,0a.09.09,0,0,1,0,.08s0,0,0,0h0a1.21,1.21,0,0,0,0-.19.16.16,0,0,0-.06-.13.21.21,0,0,0-.12-.05.33.33,0,0,0-.31.11s0,0,0,0S65.64,35.28,65.65,35.28Z"/><path class="cls-2" d="M64.22,36.08l0,0,0,.07a.12.12,0,0,1,.06.06s0,0,0,0h0l0,.1a.11.11,0,0,0,0,.08l0,0,.06.06s0,0,.06,0v.06s0,.05,0,.07l0,0v0l0,0a.16.16,0,0,0,0,.15v0h0l0,0h0a.16.16,0,0,0,.12,0s0,0,.06,0,.1,0,.13-.08,0-.12,0-.12a.08.08,0,0,0,0,.05s0,0-.06,0,0,0,0,0a0,0,0,0,0,0,0l0,0s0,0,0,0h-.08s0,0,0-.06,0,0,0-.06a.06.06,0,0,1,0,0l0,0s0,0,0,0h0a.13.13,0,0,1,0-.06s0-.08,0-.08h.25s0,0,0,0l0,0h0a0,0,0,0,0,0,0,.13.13,0,0,0,0-.06.05.05,0,0,0,0,0h-.18s0,0,0,0h-.15s0,0,0,0v0a0,0,0,0,0,0,0,.1.1,0,0,1-.07,0s0,0,0-.08a.28.28,0,0,1,0-.09.05.05,0,0,1,0,0l.06,0,0,0h0a0,0,0,0,0,0-.06l0,0h0s0,.05,0,.06l0,0h-.13s0,0,0,0l0-.05v0a.23.23,0,0,1,.07-.07l.2-.18a.18.18,0,0,1,.07-.05l.07-.09s0,0,0,0h0s0,0,0,0,0,0-.06,0v0l0,0-.05,0-.1.1-.1.08h0l-.06,0,0,.05s0,0,0,0a.14.14,0,0,0,0,.06Z"/><path class="cls-2" d="M65.91,36.28a1,1,0,0,1,0,.1h0s0,0,0,0l0,0h0s0,0,.08,0,.07,0,.09,0a.07.07,0,0,1,0,0,0,0,0,0,0,0,0h0v0a.17.17,0,0,0-.12-.16l-.09,0s0,0,0-.06,0,0,0-.07h0l0,0s0,0,0,0S65.92,36.26,65.91,36.28Z"/><path class="cls-2" d="M65.86,36.7s0,0,0,0,0,0,0,0l0,0,0,0,0,0h0v0s0,.07,0,.11h0a.64.64,0,0,1,0,.07v0l0,0a.05.05,0,0,0,0,0h0s0,0,0,0h0v0a.1.1,0,0,0,0-.09v0h0Z"/><path class="cls-2" d="M65.24,36.92h-.08a.17.17,0,0,0-.06.06,0,0,0,0,0,0,.05h0s0,0,0,0l0,0a0,0,0,0,0,0,0h0s0,0,0,0h0Z"/><path class="cls-2" d="M67.16,35.86l0,0h0l0,0h0s0,0,0,0v0h0l0,0h0l.06,0,.1,0h0s0,0,.06,0h0s0,0,0,0h-.06A.19.19,0,0,1,67.16,35.86Z"/><path class="cls-2" d="M67.3,36.4h0s0,0,0,0,0,0,0,0a.1.1,0,0,0,0,0h.21s0,0,0,0v0h0a0,0,0,0,0,0,0h0l0,0H67.3Z"/><path class="cls-2" d="M66.83,36.79a.15.15,0,0,1-.07-.13.8.8,0,0,0,0-.26s0,0,0,0a.1.1,0,0,0,0,.07s0,0,0,0,0,0,0,0,0,0,0,0a.1.1,0,0,1,0,0l0,0,0-.06s-.06-.07-.09-.05,0,.06,0,.07a.35.35,0,0,1,0,.08c0,.05,0,.11.07.15h0a.07.07,0,0,1,0,0v.07c0,.06,0,.1.1.14a.22.22,0,0,0,.18,0h0l.08,0s0,0,0,0l0,0,0,0H67A.14.14,0,0,1,66.83,36.79Z"/><path class="cls-2" d="M66.46,37.37l0,0h0l0,0s0,0,0,0h0l-.06,0a.23.23,0,0,0-.07.07.22.22,0,0,0,0,.12s0,.07,0,.06l0-.05h0s0,0,0,0l0,.07.1,0h0s0,0,0,0,0,0,0,0,0,0,0,0a.09.09,0,0,1,0-.05v-.08A.14.14,0,0,1,66.46,37.37Z"/><path class="cls-2" d="M66,36.1Z"/><path class="cls-2" d="M66,36A.08.08,0,0,0,66,36s0,0,0,0a0,0,0,0,0,0,0h0a.54.54,0,0,1,0,.1v0s0,0,0,0l0,0h0Z"/><path class="cls-2" d="M64.81,35.67l0,0v0s.06,0,.07,0H65l0,0h.06s0,0,0,0,0,0,0,0l0,0a.07.07,0,0,1-.06,0,.1.1,0,0,1,0,0l0-.05a.08.08,0,0,1,0,0s0,0,0-.06,0,0,0,0h0l0,0,0,0h0s0,0,0,0v0s0,0,0,0v0s0,0,0,0Z"/><path class="cls-2" d="M65.11,37.45a.1.1,0,0,0,.1-.07h0v-.05a.14.14,0,0,0,0-.06,0,0,0,0,1,0,0h0v-.08a.2.2,0,0,0-.05-.09s0,0-.07,0l0,0a.09.09,0,0,0,0,.06.18.18,0,0,1,.05.07l0,0s0,0,0,0,0,0,0,0v0s0,0,0,0a0,0,0,0,1,0,0v0c0-.09,0-.2-.1-.26h-.16a.08.08,0,0,0,0,0s0,0,0,0h.09l0,0a.33.33,0,0,0,0,.14.22.22,0,0,0,.05.08h0l0,0h0Z"/><path class="cls-2" d="M65.11,37.45h0A0,0,0,0,0,65.11,37.45Z"/><path class="cls-2" d="M66.49,35.56a.07.07,0,0,0,0,0h0a.39.39,0,0,0,.1.08h.05a0,0,0,0,0,0,0h0a.19.19,0,0,1,0,.07l0,0h0a0,0,0,0,0,0,0,.19.19,0,0,0,0-.08h0a.08.08,0,0,0,0,0l0,0s0,0,0,0a.3.3,0,0,0,0-.1v0a.05.05,0,0,0,0,0h0s0,0,0,0,0,0,0,0h0a.11.11,0,0,1,0,.08h0s-.07,0,0,0h0s0,0,0,0,0,0,0-.05a0,0,0,0,0,0,0h0a.06.06,0,0,0,0,0s0,0,0,.06Z"/><path class="cls-2" d="M64.75,36.39h0a0,0,0,0,0,0,0h-.08v0l0,0h0v0h0Z"/><path class="cls-2" d="M64.7,35.53s0-.06,0-.08V35.4a.1.1,0,0,1,0,0,.39.39,0,0,1,.15-.06.12.12,0,0,0,.08,0l0,0a.35.35,0,0,1,0-.08l.06-.08h0a0,0,0,0,0,0,0h0a.07.07,0,0,0-.06,0,.1.1,0,0,0,0,0l0,0a.19.19,0,0,1-.07.06l-.07,0h0l-.11.07s0,0,0,0a.08.08,0,0,0,0,0v.1S64.68,35.52,64.7,35.53Z"/><path class="cls-2" d="M66.59,35.31h0s0,0,0,0a0,0,0,0,0,0,0l0,0v0Z"/><path class="cls-2" d="M64.62,36.33h0l0,0v0S64.61,36.31,64.62,36.33Z"/><path class="cls-2" d="M66.58,37.06l0,0,0-.05,0,0a.12.12,0,0,0,0-.1h0v0a.31.31,0,0,1-.09.14s-.09.11,0,.12S66.57,37.08,66.58,37.06Z"/><path class="cls-2" d="M69.53,37.43s0,0,0,0,0,0,0,0,0,0,0,0h0A.05.05,0,0,0,69.53,37.43Z"/><path class="cls-2" d="M67,36.33a.19.19,0,0,0,0,.15.42.42,0,0,0,0,.1s0,0,0,0,0,0,0,0a.76.76,0,0,1,0-.15s0,0,0-.05a0,0,0,0,0,0,0h0l0,0s0,0,.06,0,0-.1,0-.14a.22.22,0,0,0,0-.08s0-.11-.08-.12h0v0s0,0,0,0a.14.14,0,0,1,0,.14A.25.25,0,0,0,67,36.33Z"/><path class="cls-2" d="M66.73,35.11a.53.53,0,0,1,.22,0,.27.27,0,0,1,.18.13.88.88,0,0,1,.05.15c0,.05,0,.1,0,.15s0,0,0,0l0,0v0a.69.69,0,0,0-.12-.38.43.43,0,0,0-.16-.09.65.65,0,0,0-.19,0,.2.2,0,0,0-.1,0l0,0S66.71,35.11,66.73,35.11Z"/><path class="cls-2" d="M64.81,35.85h.09v0h0l0,0s0,0,0,0S64.8,35.84,64.81,35.85Z"/><path class="cls-2" d="M65,36.31l0,0h0a.13.13,0,0,1,0-.06s0,0,0,0a.06.06,0,0,0,0-.06h0a.14.14,0,0,1-.07-.08s0,0,0,0h0a.13.13,0,0,0,0,.06s0,0,0,.06l0,0,0,0,0,0h0v0A0,0,0,0,0,65,36.31Z"/><path class="cls-2" d="M65.2,36.82h.09a0,0,0,0,0,0,0s0,0,0,0h0l0,0h0S65.17,36.82,65.2,36.82Z"/><path class="cls-2" d="M71.71,38.69a.15.15,0,0,0,0-.07,1.56,1.56,0,0,0-.23-.62,2.27,2.27,0,0,0-.57-.66,1.75,1.75,0,0,0-.43-.22L70.22,37l-.24-.1a.73.73,0,0,0-.21-.06h-.24l-.17,0a2,2,0,0,1-1.49-.43.57.57,0,0,1-.2-.26c0-.09,0-.21-.11-.28l-.06,0s0-.07,0-.08l0,0s0,0,0,0h0a.27.27,0,0,1-.24-.07.77.77,0,0,1-.14-.25c0-.08-.13-.17-.22-.15l0,0s0,0,0,0,.16.12.2.21a.4.4,0,0,0,.17.23l.13,0a.48.48,0,0,1,.22.31s0,.1,0,.12-.11-.07-.17-.08.08.12.15.15a1.34,1.34,0,0,1,.31.22,2.43,2.43,0,0,0,.81.39,2.27,2.27,0,0,0,.9,0,.86.86,0,0,1,.28,0,6.29,6.29,0,0,1,.65.26,1.62,1.62,0,0,1,.55.33h0a2.16,2.16,0,0,1,.36.53,1.58,1.58,0,0,1,.23.59.6.6,0,0,1-.07.35.56.56,0,0,1-.24.22l-.06,0a.74.74,0,0,1-.36,0,1.48,1.48,0,0,1-.67-.34l0,0a5.39,5.39,0,0,0-.59-.45,1,1,0,0,1,.53.12,2.6,2.6,0,0,1,.33.25l.1.08a1.19,1.19,0,0,0,.25.13.45.45,0,0,0,.39,0,.27.27,0,0,0,.07-.08.28.28,0,0,0,0-.29.51.51,0,0,1-.43-.06.92.92,0,0,1-.31-.31,1.16,1.16,0,0,0-.18-.2.21.21,0,0,0-.25,0,.6.6,0,0,1,.39.25,1.57,1.57,0,0,0,.34.34,1.1,1.1,0,0,1,.34.18s0,0,0,0a.08.08,0,0,1,0,0h0a.5.5,0,0,1-.5,0l-.08-.05a3.59,3.59,0,0,0-.5-.37,1.92,1.92,0,0,1-.46-.21.77.77,0,0,1-.22-.44c0-.12-.08-.27,0-.37s-.06,0-.08.06a.86.86,0,0,0,0,.39c0,.14.11.3,0,.41a.29.29,0,0,1-.25.08.82.82,0,0,0-.27,0c-.09,0-.18.1-.17.18s-.1,0-.12.09a.6.6,0,0,1,0,.16.16.16,0,0,1-.12.08c-.15,0-.35,0-.42.11s0,.12,0,.17a.17.17,0,0,1-.2.1.09.09,0,0,0,0-.11.49.49,0,0,1-.22.18l-.06,0-.1,0h0l0,0,0,0s0,0,0,0l-.11,0h-.11l0,0h0a.15.15,0,0,0,.11,0,.39.39,0,0,0,0-.13.57.57,0,0,1,0-.13.54.54,0,0,1,.07-.13.58.58,0,0,1,.12-.1.59.59,0,0,1,.29-.07h0a0,0,0,0,0,0,0h0a.42.42,0,0,0-.33,0c-.09.05-.18.14-.28.14l-.07,0,0,0a.3.3,0,0,0-.16,0,.34.34,0,0,1-.16-.1.17.17,0,0,1,0-.18s0-.05,0-.08a0,0,0,0,0,0,0l0,0c0,.06,0,.13-.07.19a.73.73,0,0,0-.09.08.06.06,0,0,0,0,.1.21.21,0,0,0,0,.11s0,0,0,0-.11,0-.17,0h-.14l-.2,0h0c-.13,0-.26,0-.39,0l-.44,0a2,2,0,0,0-.74,0h-.12a.24.24,0,0,0-.2,0,0,0,0,0,0,0,0l0,0s0,.05,0,.06l0,.05s0,0,0,0a0,0,0,0,0,0,0s-.07,0-.11,0H64l0,0h0s0,0,0,0a.13.13,0,0,1-.07,0s0,0-.06-.05l0,0s0,0,0,0l0,0h0a.09.09,0,0,1,0-.09l0,0,0,0a.38.38,0,0,1,.11-.11.1.1,0,0,1,.05,0l.07,0a.48.48,0,0,1,.2-.07,1.69,1.69,0,0,1,.23,0h.12l.06,0h0a2.1,2.1,0,0,1,.43,0h.17l.31,0a1.51,1.51,0,0,0,.3,0l0,0s0,0,0,0h0l0,0s0-.09-.07-.13l0,0a.17.17,0,0,0,0-.1h0a.17.17,0,0,1,0,.07,0,0,0,0,0,0,0,0,0,0,0,1-.05,0h-.14l0,0v0a0,0,0,0,1,0,0s0,0,0,0a.08.08,0,0,1-.07,0l0,0s0,0,0,0a0,0,0,0,1,0,0h0l0,0a0,0,0,0,0,0,0s0,0,0,0h.18s0,0,0,0,0,0,0,0h0a0,0,0,0,0,0,0,0,0,0,0,0,0,0h0l0,0a.1.1,0,0,1,0-.07v-.05h.06s0,0,0,0,0,0,0,0a0,0,0,0,1,0,0s0,.06,0,.08,0,0,0,0,0,0,0,0,0,0,0,0,0,0,0,0,0,0,0,0h0s0,0,0,0h0l0,0a.11.11,0,0,0,0,.06.22.22,0,0,0,0,.08,0,0,0,0,1,0,0h0v0h0a.09.09,0,0,0,0,.06s0,0,0,.07l0,0a0,0,0,0,0,0,0s0,0,0,0v0h0l-.07,0h0a.24.24,0,0,1-.13-.07.29.29,0,0,1-.11-.16.27.27,0,0,1,0-.18.77.77,0,0,1,.17-.19s0,0,0,0a0,0,0,0,0,0,0,.58.58,0,0,0-.19.16.27.27,0,0,0-.06.12.25.25,0,0,0,0,.12v0a.29.29,0,0,0,.09.15l.06.05h0s0,0,0,0l0,0a.12.12,0,0,1-.09,0l0,0,0,0s0,0,0,0h0a.06.06,0,0,0,0,0s0,0,0,0h0a.07.07,0,0,0,0,0h-.06l0,0V38l0,0,0,0s0,0,0,0h0a.38.38,0,0,1,0,.1h-.1s-.07,0-.08,0,0,0,0,0,0,0,0,0,0,0,0,0l0,0v0l0,0s0-.08,0-.11v0s0,0,0,0a.25.25,0,0,1,0-.12s0,0,0-.06h0a.78.78,0,0,0,0,.14l0,0,.07,0h.07a0,0,0,0,0,0,0l0,0-.05,0a.09.09,0,0,1,0-.05l0-.1a.08.08,0,0,0,0,0s0,0,0,0l0,0h0s0,0,0,0a0,0,0,0,0,0,0,.22.22,0,0,1,0,.08l0,.09a.11.11,0,0,0,0,.08s0,.05,0,.08a.07.07,0,0,1,0,0,0,0,0,0,1,0,0l0,0s0,0,0,0h0s0,0,0,0a.6.6,0,0,1,0,.17l0,0-.23,0h-.18l-.14,0-.09,0-.09,0h-.12a.64.64,0,0,0-.18.06l-.05,0,0,0v0h0l0,0a.2.2,0,0,0-.08.08l-.09.1s0,0,0,0a.08.08,0,0,0,0,.08.11.11,0,0,0,0,.08l0,0v0a.17.17,0,0,0,.06.1.14.14,0,0,0,.09,0l0,0h0s0,0,.05.06v.32h3.33s0,.06.09,0a.24.24,0,0,0,.13,0h3.81v-.1a.1.1,0,0,1,.05,0A.7.7,0,0,0,71.71,38.69ZM65.3,38h0s0,0,0,0,0,0,.07,0h0l0,0,0,0h0s0,.06,0,.07l0,0h0v0h-.17a0,0,0,0,1,0,0l0,0h0a.19.19,0,0,0,0-.08l0,0Zm-.65.33h.08c.12,0,.24,0,.36,0h.21l.29,0,.36,0h0v0h0s0,0,0,0a1,1,0,0,1-.35,0,1.46,1.46,0,0,0-.22,0,.74.74,0,0,0-.21,0,3,3,0,0,0-.43,0s-.08,0-.09,0Zm.08.65a2.08,2.08,0,0,1,.5,0h-.5Zm2.1-.15h0Zm0,0Zm0,.14,0,0s.08,0,.12,0Zm.14-.29Zm.2.29s.06,0,.08,0h-.08Zm.12-.07ZM70,39H69.4c-.12,0-.25,0-.37,0a.28.28,0,0,1-.13,0s-.06,0-.07,0,0,0,0,0a.11.11,0,0,1-.07,0s0,0,0,0a.1.1,0,0,0,0-.05l0,0s0-.1,0-.1-.07-.08,0-.12.09-.06.12-.1l0-.07A.24.24,0,0,1,69,38.5a1.75,1.75,0,0,1,.56.06,2,2,0,0,1,.56.39l.08.06Z"/><polygon class="cls-2" points="66.79 38.81 66.79 38.81 66.79 38.81 66.79 38.81 66.79 38.81 66.79 38.81"/><polygon class="cls-2" points="67.26 38.88 67.26 38.88 67.26 38.88 67.26 38.88"/><polygon class="cls-2" points="66.83 38.8 66.83 38.81 66.83 38.81 66.83 38.8"/><polygon class="cls-2" points="66.94 38.66 66.94 38.66 66.94 38.66 66.94 38.66"/><path class="cls-2" d="M65.77,38.05s0,0,0,0a0,0,0,0,0,0,0s0,0,0,0h0S65.79,38,65.77,38.05Z"/><path class="cls-2" d="M66.12,37.63a.29.29,0,0,0,0,.1.1.1,0,0,0,.06.05h.05s0,0,0,0a0,0,0,0,1,0,0l-.06,0a.12.12,0,0,1,0-.08.25.25,0,0,1,.09-.28l0,0a.32.32,0,0,0,.1-.1,1.17,1.17,0,0,0,.1-.26.73.73,0,0,0,0-.29h0a0,0,0,0,0,0,0,.33.33,0,0,0,0,.14.5.5,0,0,1,0,.21.41.41,0,0,1-.16.23c-.09,0-.21.17-.18.29S66.11,37.61,66.12,37.63Z"/><path class="cls-2" d="M67.4,39.46h0Z"/><path class="cls-2" d="M68.49,38.73h-.35s0,0,0,0a0,0,0,0,0,0,0h0a.1.1,0,0,0,.09,0h.3a0,0,0,0,0,0,0h0Z"/><path class="cls-2" d="M64.93,38.28Zm-.28,0Z"/><polygon class="cls-2" points="64.93 38.28 64.92 38.28 64.93 38.28 64.93 38.28"/><polygon class="cls-2" points="64.65 38.33 64.65 38.33 64.65 38.33 64.65 38.33"/><path class="cls-2" d="M69,38.83l-.06,0-.06,0h0s0,0,0,0l0,0a.06.06,0,0,1,.07,0s0,0,0,0A0,0,0,0,1,69,38.83Z"/><path class="cls-2" d="M68.94,38.77a.06.06,0,0,0-.07,0l0,0s0,0,0,0h0l.06,0,.06,0a0,0,0,0,0,0,0S69,38.77,68.94,38.77Z"/><path class="cls-2" d="M10.42,34.62l-.18-.07a1,1,0,0,0-.21,0l-.06,0-.27.06-.21.11a.16.16,0,0,0-.14,0,.52.52,0,0,1-.21.12.49.49,0,0,0-.23.21l-.2.07-.12.09,0,.13,0,.12,0,.11a.23.23,0,0,1-.13.17c-.12.06-.07.05-.07.05l-.08.13-.1.19v.14L8,36.39l-.27.21-.53.26-.76.08-.42,0-.76.24-.44.23-.23.21-.2.25-.22.4-.08.21,0,.23,0,.21.1.25.18.14.22.09H7.7l.43.06.14,0,.09,0,.05,0,.24-.07,3.07-.21.1-.13L12,39l.07-.1,0-.12-.21-.2-.15-.06-.09-.07-.15,0-.13,0-.13-.05-.23,0-.23,0-.1,0,0-.16,0-.09v-.47l0,0,.07-.07.08-.24.12,0A.25.25,0,0,1,11,37c.07,0,.07,0,.07,0v-.15l0-.13v-.11l.08,0,.11-.12,0-.2.12-.1V36l-.06,0-.34-.33a.41.41,0,0,0,0-.12.6.6,0,0,1-.05-.14l-.09-.07-.1,0-.18-.19,0,0a.45.45,0,0,1,0-.12s0,0,0,0a.18.18,0,0,1,.12,0l-.05,0-.07,0-.12,0a.31.31,0,0,1,.07-.15h-.08l-.05,0Z"/><path class="cls-2" d="M9.27,35.17a.25.25,0,0,0,0-.07v0c0-.06,0-.06.08-.08l0,0h0a0,0,0,0,1,0,0v0h0l0,0a.11.11,0,0,0-.06.07s0,0,0,0,0,0,0,0a0,0,0,0,1,0,0l0,0s0,0,0,0v0l0,0h0Z"/><path class="cls-2" d="M10.49,34.69h0a.07.07,0,0,0-.06,0h-.05a.13.13,0,0,0,0-.06l-.1,0h0a.11.11,0,0,0-.08,0h0l-.08,0s0,0,0,0h0a.05.05,0,0,1,0,0l0,0h0l.09-.06a.11.11,0,0,1,.08,0l.14,0h0l0,0h.14a0,0,0,0,1,0,0A.06.06,0,0,1,10.49,34.69Z"/><path class="cls-2" d="M10.43,35h0l.06,0,0,0,0,0h0v0h0a.11.11,0,0,1,.08,0l0,0v0h-.08v0s0,0,0,0h0l0,0s0,0,0,0a.13.13,0,0,0,0,.06l0,0h0s0,0,0,0h0l0,0h0l0,0v0s0,0,0,0l0,0S10.42,35,10.43,35Z"/><path class="cls-2" d="M9.79,35l-.08,0s0,0,0,.05l0,0h0l0,0s0,0,0,0h0v0a.05.05,0,0,1,0-.05.07.07,0,0,1,.06,0l0,0,0,0a.13.13,0,0,1,.08,0h0s0,0,0,0h0Z"/><path class="cls-2" d="M9.34,34.79h0a0,0,0,0,0,0,0l.12,0,.07,0h0l0,0s0,0,0,0H9.54a.25.25,0,0,1-.12,0H9.17l-.07,0H9v0h0a.2.2,0,0,1,.1-.08h.06s0,0,0,0,0,0,0,0h0a.18.18,0,0,1,.07-.05h0s0,0,0,0A.05.05,0,0,1,9.34,34.79Z"/><path class="cls-2" d="M9.93,35h0s0,0,0,0l0,0H10l.07,0,0,0s0,0,0,0H10Z"/><path class="cls-2" d="M10,34.58h0l-.05,0h0l-.12,0a.35.35,0,0,0-.13.08l-.06,0a.26.26,0,0,1-.15,0h0a0,0,0,0,1,0,0l.11,0,.1-.07a.56.56,0,0,1,.17-.09h0a.22.22,0,0,1,.14,0h0v0a0,0,0,0,1,0,0Z"/><path class="cls-2" d="M10.73,34.84h0a.07.07,0,0,1-.06,0h-.07l0,0h-.06v0l0,0h.15s0,0,0,0S10.74,34.84,10.73,34.84Z"/><polygon class="cls-2" points="10.68 37.51 10.68 37.51 10.68 37.51 10.68 37.51 10.68 37.51 10.68 37.51"/><path class="cls-2" d="M27.74,35.84h0Z"/><path class="cls-2" d="M10.63,36.5s0,0,0,0,0,0,0,0h0s0,0,0,0a.43.43,0,0,1,0,.05s0,0,0,.07l0,0h0s0,0,0,0,0,0,0,0a.08.08,0,0,1-.07,0H10.6a.08.08,0,0,1,0-.08s0-.07,0-.09Z"/><path class="cls-2" d="M10.11,35.28h0A.46.46,0,0,0,10,35.2a.23.23,0,0,0-.11,0,.35.35,0,0,0-.14,0h0s0,.06,0,.09a.38.38,0,0,0,0,.21.15.15,0,0,0,.13.11v-.08a.41.41,0,0,1,0-.11l.08,0,.09,0h0a.09.09,0,0,1,.05,0,.28.28,0,0,1,0,.12v0l0,0-.05,0s0,0-.06,0,0,0-.05,0l0,0s0,0,0,.07v0a.09.09,0,0,0,0,.05.06.06,0,0,1,0,0H9.79a0,0,0,0,0,0,0s0,0-.06,0a.47.47,0,0,0-.09-.06l-.07,0a.1.1,0,0,1-.06-.08.34.34,0,0,1,0-.1,0,0,0,0,1,0,0s0,0,0,0,0,0,0,0a.09.09,0,0,0,0,.08s0,0,0,0h0c0-.06,0-.13,0-.19a.21.21,0,0,1,.19-.18.33.33,0,0,1,.31.11s0,0,0,0S10.12,35.28,10.11,35.28Z"/><path class="cls-2" d="M11.54,36.08l0,0,0,.07a.12.12,0,0,0-.06.06v0h0a.3.3,0,0,1,0,.1.19.19,0,0,1,0,.08l-.05,0a.17.17,0,0,1-.06.06s-.05,0-.06,0v.06s0,.05,0,.07l0,0v0l0,0a.16.16,0,0,1,0,.15s0,0,0,0h0l0,0h0a.16.16,0,0,1-.12,0s0,0-.07,0a.91.91,0,0,1-.13-.08s0-.12,0-.12a.08.08,0,0,1,0,.05s0,0,.06,0l.05,0a0,0,0,0,1,0,0l0,0s0,0,.05,0h.08s0,0,0-.06,0,0,0-.06v0l0,0s0,0,0,0h0a.13.13,0,0,0,0-.06s0-.08,0-.08h-.25v0l0,0h0s0,0,0,0a0,0,0,0,1,0-.06.05.05,0,0,1,.05,0H11a0,0,0,0,0,0,0h.15s0,0,0,0v0a0,0,0,0,1,0,0,.1.1,0,0,0,.07,0s0,0,0-.08a.28.28,0,0,0,0-.09.05.05,0,0,0-.05,0l-.06,0,0,0h0a0,0,0,0,1,0-.06l0,0h0s0,.05,0,.06l0,0h.13s0,0,0,0,0,0,0-.05v0a.23.23,0,0,0-.07-.07l-.2-.18-.07-.05-.07-.09,0,0h0s0,0,0,0,0,0,0,0l0,0s0,0,0,0l0,0,.09.1.11.08h0l0,0,.05.05s0,0,0,0a.14.14,0,0,1,0,.06S11.55,36.07,11.54,36.08Z"/><path class="cls-2" d="M9.85,36.28a1,1,0,0,0,0,.1h0s0,0,0,0l0,0h0s0,0-.08,0a.1.1,0,0,0-.1,0,.09.09,0,0,0,0,0,0,0,0,0,1,0,0h0v0a.16.16,0,0,1,.12-.16l.09,0s0,0,0-.06,0,0,0-.07h0l0,0,0,0S9.84,36.26,9.85,36.28Z"/><path class="cls-2" d="M9.9,36.7s0,0,0,0l0,0,.05,0s0,0,0,0l0,0h0v0s0,.07,0,.11h0a.64.64,0,0,0,0,.07s0,0,0,0l-.05,0s0,0,0,0h0s0,0,0,0h0v0a.1.1,0,0,1,0-.09s0,0,0,0h0Z"/><path class="cls-2" d="M10.52,36.92h.08l.06.06s0,0,0,.05h-.06a0,0,0,0,1,0,0l0,0,0,0h0s0,0,0,0h0Z"/><path class="cls-2" d="M27.72,35.86l0,0h0l0,0h0l0,0a0,0,0,0,1,0,0h0s0,0,0,0h0l-.05,0-.1,0h0s0,0-.05,0h0s0,0,0,0h.06A.22.22,0,0,0,27.72,35.86Z"/><path class="cls-2" d="M27.58,36.4h0v0l-.06,0h-.2s0,0,0,0v0h0l0,0h.18Z"/><path class="cls-2" d="M8.93,36.79A.15.15,0,0,0,9,36.66a1.27,1.27,0,0,1,0-.26s0,0,0,0,0,.05,0,.07,0,0,0,0v0s0,0,.05,0a.1.1,0,0,0,0,0l0,0,0-.06s.06-.07.09-.05,0,.06,0,.07a.35.35,0,0,0,0,.08c0,.05,0,.11-.07.15h0a.07.07,0,0,0,0,0v.07c0,.06-.05.1-.1.14a.23.23,0,0,1-.18,0h0l-.1,0s0,0,0,0l0,0a.05.05,0,0,1,0,0h.09A.14.14,0,0,0,8.93,36.79Z"/><path class="cls-2" d="M9.3,37.37l0,0h0l0,0s0,0,0,0h0l.06,0,.07.07a.22.22,0,0,1,0,.12s0,.07,0,.06l0-.05h0s0,0,0,0l-.05.07-.1,0h0s0,0,0,0,0,0,0,0,0,0,0,0a.09.09,0,0,0,0-.05v-.08A.14.14,0,0,0,9.3,37.37Z"/><path class="cls-2" d="M9.75,36.1Z"/><path class="cls-2" d="M9.75,36a.08.08,0,0,1,0-.05s0,0,0,0,0,0,0,0h0s0,.07,0,.1v0s0,0,0,0l0,0h0Z"/><path class="cls-2" d="M11,35.67l0,0v0s-.06,0-.07,0H10.8l-.05,0H10.7s0,0,0,0,0,0,0,0l0,0a.09.09,0,0,0,.07,0,.1.1,0,0,0,0,0l0-.05s0,0,0,0,0,0-.05-.06a0,0,0,0,1,0,0h0l0,0s0,0,0,0h0a.06.06,0,0,1,0,0v0s0,0,0,0v0s0,0,0,0Z"/><path class="cls-2" d="M10.65,37.45a.1.1,0,0,1-.1-.07h0v-.05a.14.14,0,0,1,0-.06l0,0h0a.22.22,0,0,1,0-.08.36.36,0,0,1,0-.09s.05,0,.08,0l0,0a.09.09,0,0,1,0,.06.12.12,0,0,0,0,.07l0,0s0,0,0,0v.07s0,0,0,0a0,0,0,0,0,0,0s0,0,0,0,0-.2.1-.26h.16s0,0,0,0,0,0,0,0h-.08s0,0,0,0a.33.33,0,0,1,0,.14.22.22,0,0,1,0,.08h0l0,0h0Z"/><path class="cls-2" d="M10.65,37.45h0Z"/><path class="cls-2" d="M9.27,35.54s0,0,0-.06a.06.06,0,0,0,0,0h0l0,0v.05s0,0,0,0h0s0,0,0,0h0a.11.11,0,0,1,0-.08h0a.06.06,0,0,0,0,0s0,0,0,0h0s0,0,0,0h0a.05.05,0,0,0,0,0v0a.3.3,0,0,0,0,.1v0l0,0a.08.08,0,0,0,0,0H9a.19.19,0,0,0,0,.08,0,0,0,0,0,0,0H9a0,0,0,0,0,0,0l0,0a.1.1,0,0,1,0-.07h0l0,0h.05a.24.24,0,0,0,.09-.08h0a.06.06,0,0,0,0,0Z"/><path class="cls-2" d="M11,36.39h0a0,0,0,0,1,0,0h.08v0s0,0,0,0h0s0,0,0,0h0a0,0,0,0,1,0,0h0Z"/><path class="cls-2" d="M11.06,35.53s-.05-.06-.05-.08V35.4a.1.1,0,0,0,0,0,.47.47,0,0,0-.15-.06.12.12,0,0,1-.08,0l0,0-.05-.08-.06-.08h0a0,0,0,0,1,0,0h0s0,0,.06,0l0,0,0,0a.09.09,0,0,0,.06.06l.07,0h.05l.11.07a0,0,0,0,1,0,0,.08.08,0,0,1,0,0v.1S11.08,35.52,11.06,35.53Z"/><path class="cls-2" d="M9.17,35.31h0s0,0,0,0a0,0,0,0,1,0,0l0,0v0Z"/><path class="cls-2" d="M11.14,36.33h0l0,0v0S11.15,36.31,11.14,36.33Z"/><path class="cls-2" d="M9.18,37.06l0,0,0-.05,0,0a.18.18,0,0,1,0-.1h0v0a.31.31,0,0,0,.09.14s.09.11,0,.12S9.19,37.08,9.18,37.06Z"/><path class="cls-2" d="M25.34,37.43h0s0,0,0,0,0,0,0,0h0Z"/><path class="cls-2" d="M27.89,36.33a.36.36,0,0,1,0,.15l-.05.1s0,0,0,0l0,0v-.15s0,0,0-.05l0,0h0l0,0s0,0-.05,0,0-.1,0-.14a.22.22,0,0,1,0-.08s.05-.11.08-.12h0s0,0,0,0l0,0a.22.22,0,0,0,0,.14Z"/><path class="cls-2" d="M9,35.11a.58.58,0,0,0-.23,0,.27.27,0,0,0-.17.13.44.44,0,0,0-.05.15.8.8,0,0,0,0,.15,0,0,0,0,1,0,0v0a0,0,0,0,1,0,0c0-.13,0-.29.12-.38a.37.37,0,0,1,.16-.09A.65.65,0,0,1,9,35a.24.24,0,0,1,.1,0l0,0S9.05,35.11,9,35.11Z"/><path class="cls-2" d="M11,35.85h-.09v0h0l0,0s0,0,0,0S11,35.84,11,35.85Z"/><path class="cls-2" d="M10.73,36.31l0,0s0,0,0,0,0,0,0,0,0,0,0-.06,0,0,0,0,0-.06.05-.06h0s.06,0,.08-.08,0,0,0,0h0a.13.13,0,0,1,0,.06s0,0,0,.06l0,0-.05,0s0,0,0,0h0v0A.11.11,0,0,1,10.73,36.31Z"/><path class="cls-2" d="M10.55,36.82h-.08a0,0,0,0,1,0,0s0,0,0,0h0l0,0h0S10.59,36.82,10.55,36.82Z"/><path class="cls-2" d="M4.36,39.32a.1.1,0,0,1,0,0v.1H8.22a.22.22,0,0,0,.14,0s.09,0,.08,0h3.33v-.32s.05,0,.05-.06h0l0,0L12,39a.17.17,0,0,0,.06-.1v0l0,0a.09.09,0,0,0,0-.08.08.08,0,0,0,0-.08l0,0L12,38.6a.2.2,0,0,0-.08-.08l0,0h0s0,0,0,0l0,0,0,0a.64.64,0,0,0-.18-.06h-.13l-.08,0-.09,0-.14,0h-.18l-.22,0,0,0a.31.31,0,0,1,0-.1.1.1,0,0,1,0-.07,0,0,0,0,1,0,0h.05a.06.06,0,0,0,0,0l0,0v-.08s0-.05,0-.08a.11.11,0,0,0,0-.08.24.24,0,0,0,0-.09v-.11h0l0,0,0,0a.08.08,0,0,0,0,0l0,.1s0,0,0,.05l-.05,0a.05.05,0,0,0,0,0s0,0,0,0h0l.09,0a.08.08,0,0,0,0,0,.39.39,0,0,0,0-.14h0s0,0,0,.06a.25.25,0,0,1,0,.12v0s0,.08,0,.11l0,0v0s0,0,0,0a0,0,0,0,0,0,0l0,0s0,0,0,0-.06,0-.06,0h-.12v-.1h.06s0,0,0,0l0,0,0,0v-.13l0,0h-.07v0h0s0,0,0,0a.06.06,0,0,0,0,0h0s0,0,0,0l0,0a.05.05,0,0,1,0,0s-.06,0-.09,0l0,0s0,0,0,0h0l.05-.05a.25.25,0,0,0,.1-.15v0a.25.25,0,0,0,0-.12l-.06-.12a.58.58,0,0,0-.19-.16,0,0,0,0,0,0,0s0,0,0,0a1,1,0,0,1,.17.19.27.27,0,0,1,.05.18.29.29,0,0,1-.11.16.21.21,0,0,1-.14.07h0l-.08,0h0v0s0,0,0,0a0,0,0,0,0,0,0l0,0s0,0,0-.07a.09.09,0,0,0,0-.06h0a0,0,0,0,1,0,0,.22.22,0,0,0,0-.08.11.11,0,0,0,0-.06l0,0h0s0,0,0,0h0s0,0,0,0l0,0s0,0,0,0,0,0,0,0,0,0,0,0,0-.06.05-.08a.06.06,0,0,1,0,0s0,0,0,0,0,0,0,0H9.9v.05a.1.1,0,0,1,0,.07l0,0h0s0,0,0,0a0,0,0,0,0,0,0h0l0,0s0,0,0,0h.18s0,0,0,0,0,0,0,0l0,0h0a0,0,0,0,1,0,0v0l0,0a.08.08,0,0,1-.07,0s0,0,0,0,0,0,0,0a0,0,0,0,1,0,0s0,0,0,0H9.9s0,0,0,0,0,0,0,0,0,0,0-.07h0a.17.17,0,0,0,0,.1l0,0s-.07.08-.06.13l0,0h0a.06.06,0,0,1,0,0l.05,0a1.46,1.46,0,0,0,.3,0l.31,0h.17a2.18,2.18,0,0,1,.43,0h.05l.06,0h.12a1.69,1.69,0,0,1,.23,0,.48.48,0,0,1,.2.07l.07,0,.05,0a.38.38,0,0,1,.11.11.08.08,0,0,0,0,0v0s.07.05.06.09h0v0a.08.08,0,0,0,0,0l0,0-.06.05a.12.12,0,0,1-.08,0s0,0,0,0h0l0,0h-.08s-.07,0-.11,0a0,0,0,0,0,0,0s0,0,0,0l0-.05s0,0,0-.06l0,0s0,0,0,0a.21.21,0,0,0-.19,0h-.12a2,2,0,0,0-.74,0l-.44,0c-.13,0-.26,0-.39,0h0l-.21,0H9.21c-.06,0-.13,0-.17,0s0,0,0,0a.21.21,0,0,0,0-.11s0-.07,0-.1a.73.73,0,0,0-.09-.08,1.46,1.46,0,0,1-.07-.19l0,0s0,0,0,0,0,0,0,.08a.17.17,0,0,1,0,.18.34.34,0,0,1-.16.1.28.28,0,0,0-.16,0,.1.1,0,0,1,0,0l-.06,0c-.1,0-.19-.09-.28-.14a.43.43,0,0,0-.33,0h0a0,0,0,0,0,0,0h0a.62.62,0,0,1,.31.07.58.58,0,0,1,.12.1.54.54,0,0,1,.07.13.57.57,0,0,1,0,.13.25.25,0,0,0,.05.13.14.14,0,0,0,.1,0h0l.06,0H8.37l-.12,0s0,0,0,0l0,0,0,0h0l-.1,0-.06,0A.58.58,0,0,1,8,39.22a.11.11,0,0,0,0,.11.19.19,0,0,1-.21-.1s0-.12,0-.17S7.49,39,7.34,39a.16.16,0,0,1-.12-.08.6.6,0,0,1,0-.16c0-.05-.07-.1-.12-.09s-.08-.16-.17-.18a.82.82,0,0,0-.27,0,.29.29,0,0,1-.25-.08c-.09-.11,0-.27,0-.41a.65.65,0,0,0,0-.39s0-.08-.07-.06a.4.4,0,0,1,0,.37.84.84,0,0,1-.22.44,1.92,1.92,0,0,1-.46.21,4.39,4.39,0,0,0-.51.37L5,39a.52.52,0,0,1-.51,0h0a.08.08,0,0,1,0,0s0,0,0,0a1.16,1.16,0,0,1,.33-.18,1.22,1.22,0,0,0,.34-.34.64.64,0,0,1,.4-.25.21.21,0,0,0-.25,0,1.16,1.16,0,0,0-.18.2,1,1,0,0,1-.31.31.51.51,0,0,1-.43.06.28.28,0,0,0,0,.29.27.27,0,0,0,.07.08.45.45,0,0,0,.39,0A1.19,1.19,0,0,0,5.15,39l.1-.08a2.6,2.6,0,0,1,.33-.25,1,1,0,0,1,.52-.12,6.41,6.41,0,0,0-.58.45l0,0a1.48,1.48,0,0,1-.67.34.73.73,0,0,1-.36,0l-.06,0A.56.56,0,0,1,4.17,39a.6.6,0,0,1-.07-.35,1.58,1.58,0,0,1,.23-.59,2.16,2.16,0,0,1,.36-.53h0a1.76,1.76,0,0,1,.56-.33A6.29,6.29,0,0,1,5.91,37a.86.86,0,0,1,.28,0,2.27,2.27,0,0,0,.9,0,2.43,2.43,0,0,0,.81-.39,1.34,1.34,0,0,1,.31-.22c.07,0,.16-.07.15-.15s-.11.11-.17.08,0-.08,0-.12a.48.48,0,0,1,.22-.31l.12,0a.38.38,0,0,0,.18-.23c0-.09.1-.19.2-.21s0,0,0,0l0,0c-.09,0-.18.07-.22.15a1,1,0,0,1-.14.25.29.29,0,0,1-.25.07H8.25a.08.08,0,0,0,0,0l0,0s0,.05,0,.08l-.06,0c-.08.07-.08.19-.11.28a.57.57,0,0,1-.2.26,2,2,0,0,1-1.49.43l-.17,0H6l-.21.06-.24.1-.25.09a1.75,1.75,0,0,0-.43.22,2.13,2.13,0,0,0-.57.66,1.56,1.56,0,0,0-.23.62.15.15,0,0,0,0,.07A.7.7,0,0,0,4.36,39.32ZM10.42,38l0,0a.11.11,0,0,0,0,.08h0l0,0s0,0,0,0h-.17v0h0l0,0s0-.06,0-.07h0s0,0,0,0l.06,0,0,0h0s0,0,.08,0,0,0,0,0h0Zm.71.32s-.07,0-.09,0a3.13,3.13,0,0,0-.43,0,.79.79,0,0,0-.22,0l-.22,0a.92.92,0,0,1-.33,0s-.06,0-.06,0h0v0h0l.35,0,.3,0h.2c.13,0,.25,0,.37,0h.08S11.12,38.32,11.13,38.32Zm-.69.63h.09a2.08,2.08,0,0,1,.5,0Zm-1.51-.14h0Zm0,0ZM8.82,39s.08,0,.12,0l0,0Zm0-.29Zm-.3.29h0s.05,0,.08,0Zm0-.07ZM5.56,39,5.64,39a2,2,0,0,1,.56-.39,1.75,1.75,0,0,1,.56-.06.22.22,0,0,1,.22.07.25.25,0,0,1,0,.07s.08.06.12.1,0,.12,0,.12,0,.09,0,.1l0,0L7,39s0,0,0,0a.07.07,0,0,1-.06,0,0,0,0,0,1,0,0s-.06,0-.09,0a.25.25,0,0,1-.12,0c-.12,0-.25,0-.37,0h-.8Z"/><polygon class="cls-2" points="28.08 38.81 28.09 38.81 28.09 38.81 28.08 38.81 28.08 38.81 28.08 38.81"/><polygon class="cls-2" points="27.61 38.88 27.61 38.88 27.61 38.88 27.61 38.88"/><polygon class="cls-2" points="28.04 38.8 28.05 38.81 28.04 38.81 28.04 38.8"/><path class="cls-2" d="M27.94,38.66h0Z"/><path class="cls-2" d="M10,38.05s0,0,0,0a0,0,0,0,1,0,0s0,0,0,0h0S10,38,10,38.05Z"/><path class="cls-2" d="M9.64,37.63l0,.1a.1.1,0,0,1-.06.05H9.5s0,0,0,0h0l.06,0a.2.2,0,0,0,0-.08.25.25,0,0,0-.09-.28l0,0c-.05,0-.07-.06-.1-.1a1.17,1.17,0,0,1-.1-.26.73.73,0,0,1,0-.29h0a0,0,0,0,1,0,0,.33.33,0,0,1,0,.14.5.5,0,0,0,0,.21.41.41,0,0,0,.16.23c.09,0,.21.17.18.29S9.65,37.61,9.64,37.63Z"/><path class="cls-2" d="M27.48,39.46h0Z"/><path class="cls-2" d="M26.39,38.73h.34s0,0,0,0a0,0,0,0,1,0,0h0s-.07,0-.09,0h-.3s0,0,0,0h0Z"/><path class="cls-2" d="M10.84,38.28Zm.27,0Z"/><polygon class="cls-2" points="10.83 38.28 10.84 38.28 10.84 38.28 10.83 38.28"/><polygon class="cls-2" points="11.11 38.33 11.11 38.33 11.11 38.33 11.11 38.33"/><path class="cls-2" d="M25.92,38.8s0,0,0,0a.06.06,0,0,1,.07,0l0,0a.05.05,0,0,1,0,0h0a.09.09,0,0,0-.05,0l-.06,0A0,0,0,0,1,25.92,38.8Z"/><path class="cls-2" d="M25.94,38.77a.06.06,0,0,1,.07,0l0,0a.05.05,0,0,1,0,0h0a.09.09,0,0,0-.05,0l-.06,0a0,0,0,0,1,0,0S25.93,38.77,25.94,38.77Z"/><path class="cls-5" d="M26.16,39.18a.66.66,0,0,1,.08,1,.09.09,0,0,1-.14,0v-.54a.2.2,0,0,0-.4,0v.55s-.12,0-.15,0a.64.64,0,0,1,.09-1V37.25a.66.66,0,0,1-.09-1,.1.1,0,0,1,.14,0v.54a.2.2,0,0,0,.39,0v-.54a.1.1,0,0,1,.14,0,.66.66,0,0,1-.09,1Z"/><path class="cls-5" d="M50.09,39.18a.66.66,0,0,1,.09,1s-.11.06-.14,0v-.54a.2.2,0,0,0-.39,0v.55s-.11,0-.14,0a.64.64,0,0,1,.09-1V37.25a.66.66,0,0,1-.08-1,.1.1,0,0,1,.14,0v.54a.2.2,0,0,0,.4,0v-.54a.11.11,0,0,1,.15,0,.66.66,0,0,1-.09,1Z"/><path class="cls-5" d="M36.57,36.24l-.87-1-.21-.67-2-4.2,2.47,4,.46.56.37,1.23-.19.1m-.5.4L35,35.92l-.38-.6-3-3.55L35,35l.59.42.67,1.1Zm-.41.56-1.24-.41-.52-.47L30,33.72l4.12,2.16.68.25,1,.87Zm-.23.61-1.31-.07-.63-.32-4.41-1.49,4.54,1,.73.06,1.14.6Zm-.07.69-1.27.29-.69-.14-4.66-.23,4.65-.27L34.1,38l1.26.26v.23Zm.12.64-1.16.61-.7,0-4.56,1,4.42-1.45.65-.32,1.29-.07A.83.83,0,0,0,35.48,39.14Zm.28.61-.95.9-.66.23L30,43l3.88-2.58.54-.48,1.22-.41Zm.43.5-.69,1.11-.58.4-3.43,3.15,3.07-3.5.4-.6L36,40.09Zm.52.36-.38,1.25-.46.53-2.53,3.92,2.09-4.16.23-.69.86-1A1.18,1.18,0,0,0,36.71,40.61Zm.61.22,0,1.31-.31.63-1.44,4.44.95-4.56.05-.72.59-1.15Zm.66.06.3,1.28-.14.69-.22,4.65-.28-4.65-.14-.71.26-1.26H38Zm.66-.12.62,1.15.05.71,1,4.55-1.49-4.41-.33-.65-.08-1.29Zm.58-.27.89,1,.24.67,2.14,4.14-2.57-3.89-.49-.54L39,40.61A1.18,1.18,0,0,0,39.22,40.5Zm.5-.43,1.11.69.4.59,3.14,3.44-3.49-3.08-.61-.4-.71-1.08A1.21,1.21,0,0,0,39.72,40.07Zm.38-.54,1.25.37.54.46,3.93,2.5L41.65,40.8,41,40.57l-1-.85Zm.22-.61,1.3,0,.63.31,4.44,1.42-4.56-.93-.72,0-1.15-.57Zm0-.67,1.27-.3.69.13,4.66.19-4.65.31-.71.15-1.26-.25v-.23Zm-.12-.63L41.4,37l.71,0,4.55-1-4.41,1.48-.65.32-1.29.08A1,1,0,0,0,40.25,37.62ZM40,37.05l1-.89.67-.23,4.15-2.11-3.89,2.55-.56.47-1.22.4Zm-.38-.47.72-1.09.59-.38,3.53-3-3.18,3.41-.41.59-1.1.68A1.14,1.14,0,0,0,39.6,36.58Zm-.54-.4.4-1.24.47-.52,2.6-3.87-2.16,4.12-.25.68-.87.95ZM38.43,36l.06-1.31.32-.63,1.47-4.42-1,4.55-.06.72L38.65,36A.9.9,0,0,0,38.43,36Zm-.66-.07-.29-1.27.14-.69.25-4.65.25,4.64.13.72L38,35.89h-.22Zm-.62.11-.6-1.17,0-.7-.91-4.57L37,34l.31.66.06,1.28Z"/><path class="cls-2" d="M37.86,48.11l-.74,0c-.12,0-.14-.13-.16-.25s-.08-.32-.28-.33h0c-.14,0-.19.11-.24.27s-.07.2-.17.2h0a9.87,9.87,0,0,1-1.73-.47c-.1,0-.08-.16-.07-.24s0-.26-.11-.34-.25,0-.35.14-.12.12-.19.12h0a8.74,8.74,0,0,1-1.29-.76c-.09-.06-.07-.16,0-.26s0-.26-.07-.34a.4.4,0,0,0-.37,0c-.11,0-.22.07-.3,0a9.28,9.28,0,0,1-1.13-1.13c-.07-.09,0-.18.05-.27s.14-.24,0-.38a.21.21,0,0,0-.18-.1.58.58,0,0,0-.18,0l-.16,0C30,44,30,44,30,44a9.68,9.68,0,0,1-.81-1.39c0-.1,0-.17.1-.24s.19-.2.13-.35-.2-.17-.33-.18-.22,0-.26-.12a8.66,8.66,0,0,1-.42-1.59c0-.12.1-.16.18-.2s.23-.1.21-.25-.13-.19-.29-.23-.2,0-.21-.15a4.53,4.53,0,0,1,0-.52,10.28,10.28,0,0,1,0-1.11c0-.11.12-.14.21-.17s.26-.07.27-.25a.31.31,0,0,0-.2-.32c-.08-.05-.18-.11-.15-.22a8.89,8.89,0,0,1,.43-1.61A.13.13,0,0,1,29,35h.12l.14,0a.19.19,0,0,0,.19-.14c.07-.19,0-.27-.16-.37s-.15-.12-.11-.21a9.27,9.27,0,0,1,.81-1.4s.05-.06.12-.06a.65.65,0,0,1,.19,0,1.06,1.06,0,0,0,.23,0,.16.16,0,0,0,.15-.08c.12-.18,0-.31-.08-.43s-.13-.17-.06-.26a10.54,10.54,0,0,1,1.25-1.25.11.11,0,0,1,.08,0A.36.36,0,0,1,32,31c.1.07.23.15.34.07s0-.17,0-.32-.07-.23,0-.29a10.78,10.78,0,0,1,1.47-.85h.06c.08,0,.13.07.19.15s.13.19.23.19a.15.15,0,0,0,.09,0c.11-.05.11-.21.12-.35s0-.25.1-.29a9.8,9.8,0,0,1,1.59-.42h0c.09,0,.13.09.15.16s.09.27.33.27.17-.09.19-.29,0-.24.13-.25l.49,0a10.11,10.11,0,0,1,1.23,0c.1,0,.13.11.14.19s.07.25.27.25a.24.24,0,0,0,.25-.18c0-.06,0-.15.14-.15h0a11,11,0,0,1,1.68.47c.09,0,.07.14.06.2s0,.22.17.3a.31.31,0,0,0,.31-.07.26.26,0,0,1,.18-.09.11.11,0,0,1,.08,0,9.18,9.18,0,0,1,1.38.83c.09.06.06.16,0,.24s-.07.21.08.32.17,0,.26,0,.21-.08.27,0a9.46,9.46,0,0,1,1.28,1.33c.05.07,0,.14,0,.21s-.06.17,0,.23a.17.17,0,0,0,.13.06h.08a.16.16,0,0,1,.19.05,9.78,9.78,0,0,1,.87,1.55c0,.09,0,.14-.09.16s-.14.08-.08.23.09.1.11.1h.1c.08,0,.16,0,.18,0a10.34,10.34,0,0,1,.51,1.91c0,.09-.09.12-.14.14s-.15.05-.14.14.1.21.17.21h0c.11,0,.14.06.14.11a4.08,4.08,0,0,1,0,.61,8.18,8.18,0,0,1,0,1c0,.1-.1.13-.18.16s-.22.11-.23.25.07.12.18.17.17.08.16.18a8.6,8.6,0,0,1-.49,1.9c0,.09-.14.1-.22.1s-.13,0-.15.05,0,.24.06.36.07.11,0,.16a5.12,5.12,0,0,0-.27.52c-.19.35-.38.71-.61,1,0,.06-.14,0-.24,0s-.2-.09-.27,0,0,.19.07.3.13.13.07.21a10.38,10.38,0,0,1-1.28,1.33l-.1.09a.08.08,0,0,1-.07,0,.23.23,0,0,1-.14-.07.23.23,0,0,0-.26-.07c-.12.07-.1.15,0,.3s.07.18,0,.24a8.4,8.4,0,0,1-1.5.9l-.05,0c-.07,0-.11-.06-.16-.12s-.12-.15-.21-.15l-.12,0c-.17.08-.15.2-.14.31s0,.2-.09.24a9.59,9.59,0,0,1-1.59.44h0c-.09,0-.13-.09-.17-.17s-.11-.21-.27-.2-.16.11-.2.26-.06.22-.17.23-.39,0-.59,0Zm-1.19-.76h0c.33,0,.38.3.41.46a.63.63,0,0,0,0,.13c.35,0,.71,0,1.06,0l.59,0a.55.55,0,0,0,0-.12c0-.14.1-.35.33-.37a.4.4,0,0,1,.41.29l0,.09a9.26,9.26,0,0,0,1.56-.44s0,0,0-.08a.38.38,0,0,1,.22-.46.41.41,0,0,1,.18,0,.42.42,0,0,1,.32.21l0,.06a8.12,8.12,0,0,0,1.45-.88.41.41,0,0,0,0-.08c0-.12-.14-.34.11-.47a.3.3,0,0,1,.15,0,.43.43,0,0,1,.27.13l0,0,.07-.06a12.3,12.3,0,0,0,1.25-1.3l0,0c-.09-.09-.27-.27-.07-.5a.25.25,0,0,1,.2-.09.6.6,0,0,1,.23.06l.07,0a7.77,7.77,0,0,0,.58-1l.27-.5,0,0a.47.47,0,0,1-.07-.52.3.3,0,0,1,.27-.11h.1a9.46,9.46,0,0,0,.48-1.86l-.08,0c-.11,0-.28-.13-.27-.31a.43.43,0,0,1,.33-.37l.09,0c0-.33,0-.65,0-1s0-.38,0-.57h0c-.12,0-.28,0-.31-.34a.26.26,0,0,1,.24-.3h0A9.57,9.57,0,0,0,46.74,35h0l-.13,0a.27.27,0,0,1-.25-.2.3.3,0,0,1,.15-.41h0a9.49,9.49,0,0,0-.84-1.49h0l-.12,0a.39.39,0,0,1-.23-.1.32.32,0,0,1,0-.39.45.45,0,0,0,0-.08A10.2,10.2,0,0,0,44,31.09l-.11.05a.72.72,0,0,1-.25.07.34.34,0,0,1-.17-.05.41.41,0,0,1-.13-.49s0-.07,0-.08A9.65,9.65,0,0,0,42,29.78h0a.2.2,0,0,0-.09.06.49.49,0,0,1-.3.12l-.15,0a.37.37,0,0,1-.27-.47.06.06,0,0,0,0,0A9,9,0,0,0,39.57,29a.17.17,0,0,1,0,.05.35.35,0,0,1-.38.28.39.39,0,0,1-.4-.36s0-.08,0-.09a9.36,9.36,0,0,0-1.19,0,3.71,3.71,0,0,0-.47,0s0,.07,0,.11,0,.42-.32.42a.44.44,0,0,1-.47-.36.33.33,0,0,0,0-.06,9.58,9.58,0,0,0-1.55.41s0,.1,0,.16,0,.39-.2.47a.28.28,0,0,1-.15,0,.45.45,0,0,1-.35-.25l-.07-.09a8.87,8.87,0,0,0-1.43.83,1,1,0,0,0,0,.12c0,.15.12.37,0,.49a.34.34,0,0,1-.19.07.56.56,0,0,1-.32-.15L31.85,31a10,10,0,0,0-1.22,1.22l.06.08a.46.46,0,0,1,.08.6.31.31,0,0,1-.27.14,1.28,1.28,0,0,1-.27,0,.56.56,0,0,0-.15,0,9.25,9.25,0,0,0-.79,1.36l.06,0a.43.43,0,0,1,.2.54.32.32,0,0,1-.32.24.86.86,0,0,1-.17,0H29a9.72,9.72,0,0,0-.43,1.58s0,0,.08.07a.45.45,0,0,1,.27.45.43.43,0,0,1-.37.4.2.2,0,0,0-.1,0,10,10,0,0,0,0,1.1l0,.5.1,0a.45.45,0,0,1,.41.35c0,.27-.18.36-.3.41l-.1,0A8.67,8.67,0,0,0,29,41.63s.05,0,.12,0a.43.43,0,0,1,.31.78s-.07.06-.07.08a10.42,10.42,0,0,0,.79,1.36l.11,0a.78.78,0,0,1,.23-.05.38.38,0,0,1,.3.16.44.44,0,0,1,0,.55.31.31,0,0,0-.05.1,9.7,9.7,0,0,0,1.11,1.11s.08,0,.14,0a.71.71,0,0,1,.26-.06.45.45,0,0,1,.25.07c.21.14.16.35.13.5s0,.09,0,.11A11.38,11.38,0,0,0,33.8,47l.08-.09a.52.52,0,0,1,.35-.2.37.37,0,0,1,.17,0,.39.39,0,0,1,.19.48.37.37,0,0,0,0,.09,10,10,0,0,0,1.68.46l0-.1C36.34,47.59,36.42,47.35,36.67,47.35Z"/><path class="cls-2" d="M26.07,42.56l0,0c-.17.06-.23.17-.17.32a.21.21,0,0,0,.28.13.24.24,0,0,0,.17-.29v-.17a.39.39,0,0,1,.26-.43.4.4,0,0,1,.55.28c.14.35-.07.47-.21.52l0,0-.08-.22h0a.19.19,0,0,0,.13-.27.18.18,0,0,0-.27-.11c-.12,0-.15.13-.15.29v.17a.37.37,0,0,1-.26.42.41.41,0,0,1-.58-.29.4.4,0,0,1,.26-.58h0Z"/><path class="cls-2" d="M27.32,43l.1.21-.53.26.19.39.53-.26.1.21-1.31.65-.11-.21.62-.3-.2-.39-.61.3-.1-.21Z"/><path class="cls-2" d="M27.8,43.92l.27.45a.34.34,0,0,1-.13.51c-.16.1-.33.11-.43,0h0c.07.14,0,.24-.14.36l-.25.16a.17.17,0,0,0-.07.13l-.14-.23a.41.41,0,0,1,.09-.1l.11-.08.13-.08c.13-.09.16-.16.08-.3l-.1-.16-.54.33-.12-.2Zm-.34.71a.22.22,0,0,0,.33.07c.13-.08.17-.18.09-.31l-.11-.17-.41.25Z"/><path class="cls-2" d="M28.56,45.09l.18.24-.94,1.2-.15-.2.24-.29-.27-.34-.34.14-.15-.2ZM28,45.9l.48-.57h0l-.69.3Z"/><path class="cls-2" d="M29,45.69l.25.27-.62.93h0l1-.55.25.26-1.08,1-.15-.16.9-.84h0l-1.09.62-.14-.14L29,46h0l-.89.84-.16-.17Z"/><path class="cls-2" d="M30.22,46.91l.23.2-.67,1.36-.19-.16.17-.33-.32-.28-.31.21-.19-.16Zm-.36.9.34-.65h0l-.61.44Z"/><path class="cls-2" d="M30.79,47.4l.3.21-.41,1h0l.83-.75.29.21L31,49.32l-.18-.13.7-1h0l-.94.84-.16-.11.45-1.18h0l-.7,1L30,48.61Z"/><path class="cls-2" d="M32.24,48.35l.22.11-.3,1.17h0l.75-.93.23.11-1,1.15-.27-.14Z"/><path class="cls-2" d="M33.24,48.83l.21.09-.57,1.36-.22-.09Z"/><path class="cls-2" d="M33.62,49l.27.1,0,1.17h0l.36-1,.21.07L34,50.7l-.28-.1,0-1.2h0l-.37,1.07-.21-.08Z"/><path class="cls-2" d="M35,49.43l.29.07,0,1.52L35.06,51v-.37l-.42-.1-.18.33-.23-.06Zm.08,1v-.74h0l-.34.66Z"/><path class="cls-2" d="M36.14,49.67l.29,0,.31,1.13h0l.11-1.08.22,0-.15,1.46-.28,0L36.33,50h0l-.12,1.12-.22,0Z"/><path class="cls-2" d="M37.57,49.78h.3l.36,1.48H38l-.08-.36h-.43l-.1.35h-.24Zm.29.92L37.71,50h0l-.19.72Z"/><path class="cls-2" d="M38.75,49.75l.24,0,.07.64h0l.36-.69.26,0-.35.66.57.79-.27,0-.43-.61-.11.2.06.47-.23,0Z"/><path class="cls-2" d="M39.8,49.61l.23,0L40.3,51l-.23,0Z"/><path class="cls-2" d="M40.21,49.55l.35-.1.53,1h0l0-1.12.34-.09.39,1.42-.21.06-.32-1.18h0l0,1.26-.2,0-.6-1.11h0l.33,1.18-.22.05Z"/><path class="cls-2" d="M41.85,49.05l.28-.12.9,1.23-.23.09-.22-.3-.4.15,0,.38-.23.09Zm.63.74-.42-.61h0l.1.74Z"/><path class="cls-2" d="M42.56,48.76l.41-.21a.38.38,0,0,1,.56.2.4.4,0,0,1-.19.58l-.19.09.27.55-.21.1Zm.51.51.15-.08a.22.22,0,0,0,.1-.33.22.22,0,0,0-.34-.12l-.14.07Z"/><path class="cls-2" d="M43.43,48.31l.2-.12.74,1.27-.2.12Z"/><path class="cls-2" d="M44.93,48.56l0,0a.22.22,0,0,0,.35.08.21.21,0,0,0,.06-.3.25.25,0,0,0-.33-.09l-.16,0a.38.38,0,0,1-.48-.15.4.4,0,0,1,.12-.6.36.36,0,0,1,.57.06v0l-.19.14v0a.2.2,0,0,0-.3-.05.2.2,0,0,0,0,.29c.07.1.16.12.33.07l.16,0a.36.36,0,0,1,.47.14.41.41,0,0,1-.14.64.4.4,0,0,1-.62-.1l0,0Z"/><path class="cls-2" d="M45.22,47.06l.22-.2,1.26.85-.19.17-.3-.22-.32.28.16.34-.18.16Zm.84.49-.6-.44h0l.35.66Z"/><path class="cls-2" d="M45.78,46.55l.29-.3c.32-.33.58-.17.89.13s.49.55.17.88l-.28.31Zm1.1.72.14-.14c.13-.14.09-.28-.22-.58s-.45-.33-.59-.19l-.14.15Z"/><path class="cls-2" d="M46.52,45.77l.15-.18.46.36.26-.34-.46-.36.15-.19,1.15.91-.14.18-.54-.42-.27.34.54.42-.15.19Z"/><path class="cls-2" d="M48.08,45.17l-1-.17.15-.22.66.14-.39-.56.14-.2.53.82.48.31-.13.2Z"/><path class="cls-2" d="M47.78,44l.15-.27,1.48.37-.12.21-.36-.09-.21.38.27.25-.12.22Zm1,.16L48,43.92h0l.55.5Z"/><path class="cls-2" d="M48.14,43.29l.14-.34,1.11.18h0l-.91-.65.14-.34,1.36.57-.09.2-1.12-.47h0l1,.74-.08.18-1.24-.19h0l1.13.47-.09.21Z"/><path class="cls-5" d="M40,15.3c.11-.05.19.06.14.2-.4.71,0,1.2.9,1.52A2.51,2.51,0,0,1,42.78,19a2.41,2.41,0,0,1-1.32,2.52,1.77,1.77,0,0,1-2.14-.6.94.94,0,0,1,.68-1.4c.7-.07.67.62,1.52.31A1.47,1.47,0,0,0,41.6,18a3.37,3.37,0,0,0-1.47-1,1,1,0,0,1-.57-1.08A.72.72,0,0,1,40,15.3"/><path class="cls-5" d="M46.49,16.85c.12,0,.17.12.09.23-.59.58-.35,1.16.42,1.72a2.46,2.46,0,0,1,1.13,2.34,2.4,2.4,0,0,1-2,2.05c-.86,0-1.79-.48-1.88-1.19a.94.94,0,0,1,1.06-1.14c.69.13.46.78,1.36.72.54-.19.76-1.09.58-1.68a3.38,3.38,0,0,0-1.12-1.38,1,1,0,0,1-.25-1.19.78.78,0,0,1,.59-.48"/><path class="cls-5" d="M52.19,20.11c.12,0,.14.16,0,.25-.72.38-.65,1-.06,1.77a2.46,2.46,0,0,1,.43,2.56,2.4,2.4,0,0,1-2.47,1.41c-.84-.21-1.59-1-1.48-1.66a.93.93,0,0,1,1.33-.8c.63.31.22.88,1.11,1.07.58,0,1-.84,1-1.45a3.36,3.36,0,0,0-.7-1.64,1,1,0,0,1,.1-1.22.72.72,0,0,1,.69-.29"/><path class="cls-5" d="M56.74,24.78c.1.06.08.19-.06.24-.79.18-.9.8-.55,1.69a2.45,2.45,0,0,1-.29,2.58,2.41,2.41,0,0,1-2.76.68c-.75-.43-1.27-1.37-1-2a.93.93,0,0,1,1.5-.4c.52.47,0,.9.78,1.33.56.13,1.22-.52,1.38-1.11A3.36,3.36,0,0,0,55.56,26,1,1,0,0,1,56,24.87a.76.76,0,0,1,.75-.09"/><path class="cls-5" d="M59.92,30.83c.09.09,0,.21-.12.22-.82-.07-1.1.5-1,1.45a2.47,2.47,0,0,1-1,2.39,2.43,2.43,0,0,1-2.85-.16,1.78,1.78,0,0,1-.34-2.19.93.93,0,0,1,1.56.05c.36.6-.29.85.35,1.49.5.29,1.32-.14,1.65-.66a3.4,3.4,0,0,0,.31-1.75,1,1,0,0,1,.73-1,.77.77,0,0,1,.75.13"/><path class="cls-5" d="M61.21,37.3c0,.11,0,.21-.18.18-.76-.29-1.19.17-1.38,1.11a2.46,2.46,0,0,1-1.65,2,2.39,2.39,0,0,1-2.69-.94,1.76,1.76,0,0,1,.29-2.2.93.93,0,0,1,1.48.48c.17.68-.52.74-.08,1.54.4.41,1.3.23,1.77-.18a3.41,3.41,0,0,0,.77-1.59,1,1,0,0,1,1-.73.77.77,0,0,1,.68.33"/><path class="cls-5" d="M60.62,43.93c0,.11-.09.18-.22.11-.65-.49-1.19-.17-1.63.68a2.49,2.49,0,0,1-2.15,1.46,2.41,2.41,0,0,1-2.32-1.66c-.15-.85.21-1.85.9-2a.94.94,0,0,1,1.28.88c0,.7-.7.57-.51,1.46.27.5,1.19.58,1.75.33a3.53,3.53,0,0,0,1.2-1.31,1,1,0,0,1,1.14-.43.74.74,0,0,1,.56.52"/><path class="cls-5" d="M58.23,50.06c0,.12-.14.16-.25,0-.49-.65-1.09-.49-1.76.19a2.48,2.48,0,0,1-2.47.81A2.41,2.41,0,0,1,52,48.87c.08-.86.72-1.71,1.43-1.71a.94.94,0,0,1,1,1.21c-.22.66-.84.34-.9,1.25.12.56,1,.9,1.59.8a3.36,3.36,0,0,0,1.51-.92,1,1,0,0,1,1.22-.09.78.78,0,0,1,.4.65"/><path class="cls-5" d="M54.14,55.36c0,.11-.18.11-.25,0-.28-.77-.91-.79-1.74-.31a2.49,2.49,0,0,1-2.6.07,2.4,2.4,0,0,1-1-2.65c.32-.8,1.17-1.44,1.85-1.23A.94.94,0,0,1,51,52.65c-.4.58-.91.1-1.22,1-.05.58.69,1.14,1.3,1.22a3.32,3.32,0,0,0,1.71-.46,1,1,0,0,1,1.19.27.75.75,0,0,1,.2.73"/><path class="cls-5" d="M48.6,59.35c-.08.09-.21,0-.23-.09-.06-.82-.65-1-1.59-.81a2.47,2.47,0,0,1-2.5-.68A2.42,2.42,0,0,1,44,54.93a1.77,1.77,0,0,1,2.13-.64.93.93,0,0,1,.17,1.54c-.55.44-.89-.16-1.43.56-.22.54.32,1.29.88,1.54a3.36,3.36,0,0,0,1.77.06,1,1,0,0,1,1.07.6.78.78,0,0,1,0,.76"/><path class="cls-5" d="M42.38,61.51c-.09.07-.21,0-.19-.15.17-.8-.34-1.15-1.3-1.21a2.47,2.47,0,0,1-2.21-1.36A2.39,2.39,0,0,1,39.23,56a1.78,1.78,0,0,1,2.23,0,.93.93,0,0,1-.28,1.53c-.64.27-.8-.41-1.53.14-.35.45,0,1.32.42,1.72a3.34,3.34,0,0,0,1.69.55,1,1,0,0,1,.86.87.77.77,0,0,1-.24.72"/><path class="cls-5" d="M36.21,15.25c-.11,0-.19.06-.14.2.4.71,0,1.2-.9,1.52a2.51,2.51,0,0,0-1.75,1.93,2.41,2.41,0,0,0,1.32,2.52,1.78,1.78,0,0,0,2.15-.6.93.93,0,0,0-.69-1.39c-.7-.08-.66.61-1.52.3-.46-.34-.41-1.26-.08-1.78a3.31,3.31,0,0,1,1.47-1,1,1,0,0,0,.57-1.08.74.74,0,0,0-.43-.62"/><path class="cls-5" d="M29.68,16.67c-.13,0-.18.12-.09.23.59.58.35,1.16-.43,1.72A2.47,2.47,0,0,0,28,21,2.4,2.4,0,0,0,30,23c.86,0,1.79-.48,1.88-1.19a.94.94,0,0,0-1.06-1.14c-.69.13-.46.78-1.36.72-.54-.19-.76-1.09-.58-1.68A3.38,3.38,0,0,1,30,18.34a1,1,0,0,0,.25-1.19.78.78,0,0,0-.59-.48"/><path class="cls-5" d="M23.7,20c-.12,0-.13.16,0,.24.72.38.66,1,.08,1.77a2.48,2.48,0,0,0-.4,2.57,2.42,2.42,0,0,0,2.49,1.39c.83-.22,1.58-1,1.46-1.68A1,1,0,0,0,26,23.47c-.62.32-.21.88-1.1,1.08-.57,0-1-.82-1-1.44a3.39,3.39,0,0,1,.68-1.64,1,1,0,0,0-.11-1.21.75.75,0,0,0-.7-.29"/><path class="cls-5" d="M19,24.8c-.1.06-.07.19.07.24.8.15.92.77.58,1.67A2.5,2.5,0,0,0,20,29.29a2.39,2.39,0,0,0,2.78.61c.73-.44,1.24-1.39.92-2a.93.93,0,0,0-1.51-.37c-.51.48.05.9-.75,1.35-.55.14-1.23-.5-1.4-1.08A3.31,3.31,0,0,1,20.17,26a1,1,0,0,0-.44-1.14A.8.8,0,0,0,19,24.8"/><path class="cls-5" d="M15.87,30.63c-.08.09,0,.21.12.21.82-.07,1.11.49,1,1.44a2.47,2.47,0,0,0,1,2.38,2.41,2.41,0,0,0,2.85-.19,1.78,1.78,0,0,0,.32-2.2.94.94,0,0,0-1.56.07c-.35.61.3.85-.34,1.5-.49.29-1.32-.13-1.65-.64a3.31,3.31,0,0,1-.32-1.75,1,1,0,0,0-.76-1,.73.73,0,0,0-.74.14"/><path class="cls-5" d="M14.53,37.09c-.06.11,0,.2.18.17.75-.3,1.19.16,1.39,1.09a2.47,2.47,0,0,0,1.67,2,2.41,2.41,0,0,0,2.68-1,1.77,1.77,0,0,0-.31-2.2.94.94,0,0,0-1.48.5c-.16.68.53.74.1,1.54A1.46,1.46,0,0,1,17,39.05a3.43,3.43,0,0,1-.8-1.59,1,1,0,0,0-1-.71.72.72,0,0,0-.67.34"/><path class="cls-5" d="M15,43.69c0,.12.1.19.23.11.64-.49,1.19-.18,1.64.67a2.5,2.5,0,0,0,2.16,1.44,2.41,2.41,0,0,0,2.3-1.69c.15-.84-.23-1.84-.92-2a.93.93,0,0,0-1.27.89c0,.7.71.56.52,1.45-.26.51-1.18.6-1.74.34a3.32,3.32,0,0,1-1.21-1.3,1,1,0,0,0-1.15-.41.8.8,0,0,0-.56.52"/><path class="cls-5" d="M17.4,49.91c0,.12.15.15.25,0,.48-.66,1.09-.5,1.76.18a2.48,2.48,0,0,0,2.48.77,2.42,2.42,0,0,0,1.74-2.26c-.1-.86-.74-1.71-1.45-1.69a.94.94,0,0,0-1,1.22c.23.66.85.33.91,1.24-.1.56-1,.91-1.57.82a3.41,3.41,0,0,1-1.53-.9,1,1,0,0,0-1.22-.07.78.78,0,0,0-.39.65"/><path class="cls-5" d="M21.31,55.1c0,.11.18.1.24,0,.28-.76.92-.78,1.75-.32a2.47,2.47,0,0,0,2.6.06,2.4,2.4,0,0,0,1-2.65c-.33-.79-1.18-1.43-1.86-1.22a.93.93,0,0,0-.6,1.43c.4.58.9.1,1.22,1,.05.57-.68,1.14-1.29,1.22a3.26,3.26,0,0,1-1.72-.45,1,1,0,0,0-1.19.27.76.76,0,0,0-.19.74"/><path class="cls-5" d="M26.88,59.22c.08.1.2.05.23-.09,0-.82.64-1,1.57-.82a2.47,2.47,0,0,0,2.51-.7,2.42,2.42,0,0,0,.22-2.84,1.78,1.78,0,0,0-2.14-.63.94.94,0,0,0-.16,1.55c.56.43.89-.17,1.45.55.21.53-.32,1.29-.88,1.55a3.36,3.36,0,0,1-1.77.07,1,1,0,0,0-1.06.61.74.74,0,0,0,0,.75"/><path class="cls-5" d="M32.93,61.44c.1.07.21,0,.2-.16-.18-.79.34-1.15,1.29-1.21a2.47,2.47,0,0,0,2.21-1.36,2.4,2.4,0,0,0-.56-2.79,1.78,1.78,0,0,0-2.23,0,.93.93,0,0,0,.28,1.53c.65.27.81-.41,1.54.13.35.46,0,1.33-.43,1.73a3.39,3.39,0,0,1-1.68.56,1,1,0,0,0-.86.87.78.78,0,0,0,.24.72"/><path class="cls-2" d="M75.66,36.48a.44.44,0,0,0-.43-.42H72.17l-.23-2.39,3-.66a.42.42,0,0,0,.32-.5l-.73-3.91a.42.42,0,0,0-.19-.28.43.43,0,0,0-.33-.06L71,29l-.74-2.31L73,25.33a.42.42,0,0,0,.22-.56l-1.59-3.63a.47.47,0,0,0-.25-.23.42.42,0,0,0-.33,0l-2.68,1.29-1.23-2,2.43-1.71a.43.43,0,0,0,.1-.59l-2.35-3.35a.39.39,0,0,0-.28-.18.43.43,0,0,0-.33.08l-2.34,1.8-1.63-1.77,2-2.17a.43.43,0,0,0,0-.6l-3-2.83a.41.41,0,0,0-.3-.12h0a.47.47,0,0,0-.31.16l-1.92,2.34-2-1.53,1.51-2.48a.41.41,0,0,0,0-.33.44.44,0,0,0-.2-.26l-3.49-2a.43.43,0,0,0-.58.16L53.1,7.33l-2.24-1,1-2.77a.42.42,0,0,0,0-.33A.45.45,0,0,0,51.56,3L47.74,1.78a.43.43,0,0,0-.54.27l-.93,2.78L44,4.39l.35-3a.48.48,0,0,0-.09-.32.41.41,0,0,0-.29-.15l-4-.4a.42.42,0,0,0-.47.38l-.3,3L36.71,3.9l-.27-3A.45.45,0,0,0,36,.55L32.06.87a.41.41,0,0,0-.39.47L32,4.44,29.62,5l-.9-2.87a.4.4,0,0,0-.21-.25.45.45,0,0,0-.34,0L24.35,3.14a.45.45,0,0,0-.25.22.42.42,0,0,0,0,.33l1,2.74L22.84,7.5,21.31,4.84a.43.43,0,0,0-.58-.16l-3.5,2a.42.42,0,0,0-.21.26.43.43,0,0,0,.05.33l1.58,2.58-2,1.47-1.9-2.23a.42.42,0,0,0-.6-.05L11.1,11.69a.42.42,0,0,0,0,.62l2.07,2.16-1.61,1.86L9.17,14.47a.4.4,0,0,0-.32-.08.43.43,0,0,0-.29.16L6.09,17.83a.41.41,0,0,0-.08.32.43.43,0,0,0,.18.29l2.46,1.75L7.51,22.3,4.77,21a.47.47,0,0,0-.33,0,.45.45,0,0,0-.25.22L2.43,24.89a.4.4,0,0,0,0,.34.42.42,0,0,0,.23.24l2.84,1.16L4.77,29l-2.95-.77a.42.42,0,0,0-.34.06.47.47,0,0,0-.19.28L.52,32.66a.42.42,0,0,0,.33.5l2.89.61-.11,2.3L.45,35.93a.42.42,0,0,0-.3.12.44.44,0,0,0-.13.31l0,4a.48.48,0,0,0,.13.31.43.43,0,0,0,.31.12h0l3.09-.07.24,2.46-2.93.58a.42.42,0,0,0-.33.5l.78,4a.4.4,0,0,0,.19.27.39.39,0,0,0,.33.06l3-.7.66,2.28-2.76,1a.45.45,0,0,0-.24.23.47.47,0,0,0,0,.33L4,55.7a.45.45,0,0,0,.25.24.45.45,0,0,0,.34,0l2.76-1.3,1.15,2L6.08,58.39A.43.43,0,0,0,6,59l2.34,3.39a.41.41,0,0,0,.28.18.43.43,0,0,0,.33-.08l2.48-1.81L13,62.39,10.9,64.57a.39.39,0,0,0-.12.31.41.41,0,0,0,.14.3L14,68a.44.44,0,0,0,.29.11h0a.46.46,0,0,0,.3-.15l2-2.35,1.93,1.44-1.63,2.46a.48.48,0,0,0-.06.33.45.45,0,0,0,.2.28l3.62,2.16a.4.4,0,0,0,.34,0,.43.43,0,0,0,.26-.2l1.48-2.7,2.18,1-1,2.76a.42.42,0,0,0,0,.33.45.45,0,0,0,.25.22L28,75.12a.43.43,0,0,0,.56-.29l.8-2.94,2.46.52-.47,2.88a.44.44,0,0,0,.08.33.48.48,0,0,0,.3.17l4.1.44a.42.42,0,0,0,.32-.09.46.46,0,0,0,.15-.3l.23-2.94H39l.15,2.94a.44.44,0,0,0,.14.3.43.43,0,0,0,.29.1h0l4.1-.36h0a.43.43,0,0,0,.37-.48l-.36-2.86L46,72l.82,2.89a.42.42,0,0,0,.22.27.44.44,0,0,0,.34,0l3.92-1.41a.43.43,0,0,0,.24-.22.47.47,0,0,0,0-.33l-1-2.73,2.25-1,1.44,2.66a.47.47,0,0,0,.27.21.43.43,0,0,0,.33,0l3.55-2.08a.36.36,0,0,0,.19-.26.39.39,0,0,0,0-.33l-1.53-2.49,2-1.46L60.87,68a.4.4,0,0,0,.31.15h0a.42.42,0,0,0,.29-.11l3-2.79a.45.45,0,0,0,0-.61l-2-2.19,1.55-1.66,2.33,1.73A.43.43,0,0,0,67,62.4l2.57-3.27a.43.43,0,0,0,.08-.33.44.44,0,0,0-.17-.29L67,56.72l1.19-2.08,2.7,1.24a.45.45,0,0,0,.57-.21l1.67-3.62a.42.42,0,0,0,0-.33.4.4,0,0,0-.22-.24l-2.75-1.15.8-2.39,2.92.73a.43.43,0,0,0,.33-.05.44.44,0,0,0,.19-.27l.87-4a.43.43,0,0,0-.06-.33.47.47,0,0,0-.28-.18l-3-.57.19-2.37,3.15,0a.48.48,0,0,0,.3-.13.41.41,0,0,0,.12-.31Zm-4.32,4-.26,3.15a.43.43,0,0,0,.35.45l2.92.56-.68,3.13L70.8,47a.44.44,0,0,0-.51.28l-1.06,3.14a.44.44,0,0,0,.24.54l2.7,1.13-1.3,2.82L68.19,53.7a.42.42,0,0,0-.54.18l-1.58,2.75a.45.45,0,0,0,.13.57L68.65,59l-2,2.59-2.29-1.71a.43.43,0,0,0-.57.05l-2.09,2.23a.43.43,0,0,0,0,.58l2,2.17-2.38,2.2-1.82-2.23a.44.44,0,0,0-.59-.07L56.23,66.7a.41.41,0,0,0-.1.57l1.49,2.45-2.78,1.63-1.43-2.62a.44.44,0,0,0-.55-.19l-3,1.32a.44.44,0,0,0-.23.54l1,2.7-3.09,1.11-.81-2.85a.42.42,0,0,0-.51-.3l-3.07.74a.43.43,0,0,0-.32.47l.35,2.81L40,75.36l-.15-2.89a.43.43,0,0,0-.42-.41l-3.26,0h0a.43.43,0,0,0-.43.4l-.22,2.89L32.27,75l.46-2.84a.43.43,0,0,0-.33-.49L29.14,71a.43.43,0,0,0-.5.3l-.79,2.89-3.06-1.1,1-2.73a.42.42,0,0,0-.23-.54l-2.92-1.31a.44.44,0,0,0-.54.19l-1.46,2.65-2.85-1.7,1.6-2.43a.42.42,0,0,0-.1-.58l-2.58-1.92a.45.45,0,0,0-.59.07l-1.94,2.31-2.4-2.22,2.07-2.15a.42.42,0,0,0,0-.59l-2.11-2.3a.45.45,0,0,0-.57-.06L8.78,61.53,6.92,58.85l2.4-1.7a.42.42,0,0,0,.13-.56L7.91,53.86a.44.44,0,0,0-.56-.17L4.64,55l-1.25-3,2.71-1a.43.43,0,0,0,.26-.52l-.88-3.06A.44.44,0,0,0,5,47l-2.92.69-.62-3.15L4.32,44a.42.42,0,0,0,.34-.47l-.31-3.24a.44.44,0,0,0-.44-.39h0L.86,40l0-3.16L4,37a.43.43,0,0,0,.42-.41l.16-3.1A.43.43,0,0,0,4.28,33l-2.84-.59.61-3.28,2.9.76a.43.43,0,0,0,.52-.29l1-3.1A.42.42,0,0,0,6.18,26L3.4,24.85l1.38-2.91L7.5,23.25a.44.44,0,0,0,.56-.19l1.53-2.8a.42.42,0,0,0-.13-.55L7.05,18,9,15.42l2.33,1.84a.43.43,0,0,0,.59-.06l2.14-2.47a.43.43,0,0,0,0-.57L12,12,14.41,10l1.87,2.21a.45.45,0,0,0,.59.07l2.6-1.94a.43.43,0,0,0,.11-.57L18,7.19l2.75-1.55L22.3,8.28a.43.43,0,0,0,.56.17L25.79,7A.43.43,0,0,0,26,6.5L25,3.81l3-1,.88,2.82a.43.43,0,0,0,.51.29l3.12-.69a.44.44,0,0,0,.33-.47l-.32-3,3.06-.25.28,2.92a.43.43,0,0,0,.41.39l3.22.06A.43.43,0,0,0,40,4.42l.3-3,3.15.32-.35,3a.44.44,0,0,0,.35.47l3.06.58A.42.42,0,0,0,47,5.46l.92-2.74,3,1-1,2.73a.42.42,0,0,0,.23.53l3,1.3a.43.43,0,0,0,.55-.18L55,5.62l2.71,1.54L56.26,9.58a.45.45,0,0,0,.11.57l2.63,2a.44.44,0,0,0,.59-.07l1.9-2.3L63.81,12l-2,2.16a.43.43,0,0,0,0,.58L64,17.09a.43.43,0,0,0,.57.05l2.3-1.76L68.73,18l-2.4,1.69a.44.44,0,0,0-.12.57L67.85,23a.44.44,0,0,0,.56.16L71,21.9l1.24,2.83L69.53,26a.43.43,0,0,0-.23.52l1,3.05a.43.43,0,0,0,.5.29l3-.69.57,3.06-2.94.66a.43.43,0,0,0-.34.46l.32,3.15a.42.42,0,0,0,.42.38l3,0,.06,3.1-3.11,0A.42.42,0,0,0,71.34,40.44Z"/><path class="cls-2" d="M37.87,40.93a2.54,2.54,0,1,1,2.54-2.54A2.55,2.55,0,0,1,37.87,40.93Zm0-4.91a2.37,2.37,0,1,0,2.37,2.37A2.38,2.38,0,0,0,37.87,36Z"/><path class="cls-2" d="M37.87,64A25.56,25.56,0,1,1,63.43,38.39,25.6,25.6,0,0,1,37.87,64Zm0-50.45A24.89,24.89,0,1,0,62.75,38.39,24.92,24.92,0,0,0,37.87,13.5Z"/><path class="cls-2" d="M37.87,53A14.64,14.64,0,1,1,52.5,38.39,14.65,14.65,0,0,1,37.87,53Zm0-28.86A14.23,14.23,0,1,0,52.09,38.39,14.25,14.25,0,0,0,37.87,24.16Z"/><path class="cls-2" d="M37.85,56.48a.25.25,0,0,1-.23-.18,2.75,2.75,0,0,0-2.45-2.16A2.57,2.57,0,0,0,33,55.68a.24.24,0,0,1-.29.11.25.25,0,0,1-.16-.27,2.34,2.34,0,0,0-.49-1.94,2.27,2.27,0,0,0-1.75-.83,2.84,2.84,0,0,0-1.9.82.23.23,0,0,1-.29,0,.26.26,0,0,1-.1-.29,2.62,2.62,0,0,0-.18-2.44A2.25,2.25,0,0,0,26,49.94a3.11,3.11,0,0,0-1.55.45.24.24,0,0,1-.27-.4,2.6,2.6,0,0,0,.63-2.56c-.33-1-1.41-1.52-3.08-1.37a.24.24,0,0,1-.25-.17.24.24,0,0,1,.12-.28,2.35,2.35,0,0,0,1.16-2.49,2.57,2.57,0,0,0-2.53-1.91.24.24,0,0,1,0-.48h0c.61,0,1.56-.93,1.76-2s-.47-2-1.91-2.58a.24.24,0,0,1-.14-.29.26.26,0,0,1,.29-.17.86.86,0,0,0,.28,0,2.37,2.37,0,0,0,1-4.45.23.23,0,0,1-.07-.29.23.23,0,0,1,.27-.14,3.27,3.27,0,0,0,.76.08,2.35,2.35,0,0,0,2.18-1.17A2.76,2.76,0,0,0,24.24,27a.24.24,0,0,1,0-.29.23.23,0,0,1,.28-.07,3.9,3.9,0,0,0,1.61.39,2,2,0,0,0,1.76-.87,2.74,2.74,0,0,0,.14-2.59.25.25,0,0,1,.09-.29.24.24,0,0,1,.3,0,3.15,3.15,0,0,0,2.15,1c1.3,0,2.06-1.09,2.08-3a.24.24,0,0,1,.46-.1,2.54,2.54,0,0,0,2.27,1.62,2.31,2.31,0,0,0,2.24-2.26.24.24,0,0,1,.47,0c.38,1.47,1.21,2.32,2.29,2.32a2.83,2.83,0,0,0,2.37-1.61.26.26,0,0,1,.29-.12.24.24,0,0,1,.16.26,2.82,2.82,0,0,0,.59,2.23,1.92,1.92,0,0,0,1.48.68,3.32,3.32,0,0,0,2.13-1,.24.24,0,0,1,.31,0,.23.23,0,0,1,.06.3,2.21,2.21,0,0,0,0,2.26,2.31,2.31,0,0,0,2,1.14,2.85,2.85,0,0,0,1.48-.44.25.25,0,0,1,.32.06.24.24,0,0,1,0,.32A2.41,2.41,0,0,0,51,29.56a2.33,2.33,0,0,0,3,1.25.22.22,0,0,1,.27.13.22.22,0,0,1-.07.3,2.57,2.57,0,0,0-1.16,2.9,2.21,2.21,0,0,0,2.39,1.51.24.24,0,0,1,.26.18.23.23,0,0,1-.13.28c-1.37.61-2,1.46-1.92,2.46a2.67,2.67,0,0,0,1.81,2.14.24.24,0,0,1,0,.48A2.65,2.65,0,0,0,53,43a2.48,2.48,0,0,0,1.14,2.7.24.24,0,0,1,.08.3.26.26,0,0,1-.29.12,3.11,3.11,0,0,0-.89-.14,2.14,2.14,0,0,0-2,1.21A2.63,2.63,0,0,0,51.52,50a.25.25,0,0,1,0,.31.25.25,0,0,1-.31.05,3,3,0,0,0-1.57-.45,2.08,2.08,0,0,0-1.68.74,3.29,3.29,0,0,0-.31,2.78.25.25,0,0,1-.12.26.26.26,0,0,1-.29,0,2.88,2.88,0,0,0-2-1,1.86,1.86,0,0,0-1.38.57,3.18,3.18,0,0,0-.76,2.33.24.24,0,0,1-.18.24.24.24,0,0,1-.28-.12,2.73,2.73,0,0,0-2.36-1.56c-1.07,0-1.86.77-2.15,2.12a.24.24,0,0,1-.23.19Zm-2.68-2.82a3.14,3.14,0,0,1,2.66,1.82,2.57,2.57,0,0,1,2.41-1.79,3.13,3.13,0,0,1,2.38,1.19,3.23,3.23,0,0,1,.86-1.94,2.38,2.38,0,0,1,1.72-.71,3.11,3.11,0,0,1,1.84.64,3.27,3.27,0,0,1,.54-2.5,2.54,2.54,0,0,1,2.05-.92,3.46,3.46,0,0,1,1.06.17A3,3,0,0,1,50.63,47a2.63,2.63,0,0,1,2.61-1.47,2.78,2.78,0,0,1-.69-2.64,3,3,0,0,1,2.08-2,3.19,3.19,0,0,1-1.44-2.24A2.58,2.58,0,0,1,54.6,36.1a2.69,2.69,0,0,1-2-1.81,2.85,2.85,0,0,1,.69-2.87,2.64,2.64,0,0,1-2.75-1.68,2.93,2.93,0,0,1,.08-2.41,3,3,0,0,1-.88.13,2.81,2.81,0,0,1-2.43-1.37,2.59,2.59,0,0,1-.28-1.92,3.41,3.41,0,0,1-1.76.55,2.44,2.44,0,0,1-1.85-.84,3.09,3.09,0,0,1-.72-1.77,3.12,3.12,0,0,1-2.32,1.17,2.69,2.69,0,0,1-2.47-1.85,2.7,2.7,0,0,1-2.53,1.82A2.87,2.87,0,0,1,33.1,22c-.31,2.47-2,2.67-2.51,2.67a3.41,3.41,0,0,1-1.87-.61,3,3,0,0,1-.41,2.29,2.85,2.85,0,0,1-3.31.89A3,3,0,0,1,25.12,30a2.84,2.84,0,0,1-2.7,1.43,2.67,2.67,0,0,1,.73,2.81,3.1,3.1,0,0,1-2,1.9,2.48,2.48,0,0,1,1.35,2.69,3.41,3.41,0,0,1-1.36,2A2.77,2.77,0,0,1,23.23,43a2.91,2.91,0,0,1-.78,2.53c2,0,2.6,1.09,2.81,1.72a3.24,3.24,0,0,1-.2,2.32,3.33,3.33,0,0,1,.93-.14,2.68,2.68,0,0,1,2.26,1.14,2.84,2.84,0,0,1,.44,2.17,3.07,3.07,0,0,1,1.64-.51,2.74,2.74,0,0,1,2.12,1,2.78,2.78,0,0,1,.63,1.47A2.64,2.64,0,0,1,35.17,53.66Z"/><path class="cls-2" d="M28,30.14l-.14-.1-.8,1.09-.24.36h0l-.47.81h0l.15.09.17-.28.62.37-.23.17-.05,0v0l-.1.06,0,0-.06,0h0v-.06l0-.06,0,0a.1.1,0,0,0,0-.07l0,0-.06,0-.06,0h-.08a.33.33,0,0,0-.23.12.31.31,0,0,0-.09.11l-.05.12a.4.4,0,0,0,0,.26.28.28,0,0,0,.17.2.44.44,0,0,0,.3,0l.06,0,.05,0,0,.16,0,.39.19,0,.07-.13v-.13l0-.12,0-.08,0-.2.07,0L27,33l.45-.34v.9l.19,0,.08-.12,0-.7.35.2h0l.17-.3-1.38-.81.16-.27h0l.21-.31.45.34-.07.1v.06a.11.11,0,0,0,0,.05h0l0,0h0a.35.35,0,0,0,.16,0h0a.72.72,0,0,0,.19,0c.05,0,.07,0,.07,0a.12.12,0,0,0,.08,0l.09-.11,0,0v0h0l0,0,0,0L28,31.41l.26-.35.67.49h0l.21-.27-1.29-.95Zm.11.81-.26.35L27.39,31l.26-.35Zm-1.8,1.89h.06l.07,0a.24.24,0,0,1,.12.14h0l-.06,0h-.08l-.07,0-.06,0,0-.06v0l0,0Z"/><rect class="cls-2" x="27.19" y="29.8" width="0.4" height="0.25" transform="translate(-13.15 31.5) rotate(-49.76)"/><path class="cls-2" d="M33.32,26.41l-.07-.16-.83.32h0l-1.6.88h0l-.62.46h0l-.05,0,0,0h0l-.58.45h0l-.06,0v0h0l-.15.14h0l-.05,0-.06-.05-.05-.05a.28.28,0,0,1-.08-.12.27.27,0,0,1,0-.23h0a.12.12,0,0,1,0-.08.78.78,0,0,1,.18-.08,1,1,0,0,1,.21-.06l.24,0h.48l.17-.16.13-.11h-.63a1.58,1.58,0,0,0-.61.12.84.84,0,0,0-.24.14l-.1.09a.51.51,0,0,0-.16.58.45.45,0,0,0,.11.17l0,0,.15.11h0l-.21.19.11.13.22-.2,1.07,1.19.25-.22-1.07-1.19.17-.16.66-.51.21-.15.47.68h0a.17.17,0,0,1,0,.1.36.36,0,0,1,0,.11l0,0,0,.06,0,0-.08,0s-.05,0-.09,0a.32.32,0,0,1-.21-.14.31.31,0,0,1-.05-.1.26.26,0,0,1,0-.11.2.2,0,0,1,.06-.14l0,0,.06,0h.07l.13-.1-.16-.13h0l-.05,0,0,0-.06,0-.05,0-.1.09a.43.43,0,0,0-.17.33.52.52,0,0,0,.11.35.44.44,0,0,0,.15.13.46.46,0,0,0,.2.05h0a.56.56,0,0,0,.34-.12l.11-.08.07-.07.05-.08.24.33v0l.27-.19h0l-.91-1.32.17-.12.09-.07h0L32,27l.2.37-.78.44,0,0,0,0a.1.1,0,0,0,0,.13.17.17,0,0,0,.09.06.4.4,0,0,0,.16.08l.18.06h.09l.12-.06,0,0,0,0h0a0,0,0,0,0,0,0l0,0-.13-.24.4-.22.47.86v0l.3-.16-.77-1.41.13-.07h0l.3-.12.63,1.47h0l.32-.13L33,26.52Z"/><path class="cls-2" d="M36.33,25.65l0-.17-1.8.35h0l0,.17,1.21-.23.08.41-.88.18h0l0,0a.12.12,0,0,0,0,.12s0,0,.06.09a.53.53,0,0,0,.13.13l.15.11c.05,0,.07,0,.09,0l.14,0h0l0,0h0v-.08l-.06-.27.45-.09.19,1v0l.32-.07h0l-.31-1.57Z"/><path class="cls-2" d="M43.66,26.75l-.08,0-.09,0h0L43,26.46h0l0,0-.1,0h0l-.11-.05h0v-.14l0-.06a.24.24,0,0,1,.07-.13.29.29,0,0,1,.2-.11h0a.14.14,0,0,1,.09,0l.16.12a.94.94,0,0,1,.14.16l.14.2,0,.08,0,0a.31.31,0,0,1,.05.1l0,.1.05.11.22.08.16.07-.08-.17,0-.13-.15-.28a1.79,1.79,0,0,0-.39-.48.83.83,0,0,0-.24-.15l-.12,0a.51.51,0,0,0-.59.11.54.54,0,0,0-.1.18V26l0,.16h0l-.11-.05h0l-1.62-.48h0l-2.27-.29h-.2v0l0-.08V25.2a.39.39,0,0,1,0-.14.35.35,0,0,1,.15-.18h0l.08,0,.19.06a1.09,1.09,0,0,1,.19.1l.2.14.08.06h0l0,0,.07.07.08.09.08.07h.42l-.13-.13-.1-.11-.24-.2a1.51,1.51,0,0,0-.53-.32.74.74,0,0,0-.27-.06h-.13a.5.5,0,0,0-.51.31.48.48,0,0,0,0,.2v.06l0,.14h-.29v.17h.3l0,1.61v0h.34l0-1.64h.29l.85.11,0,.3-.06,0,0,0-.19,0H39a.49.49,0,0,0-.25.1.39.39,0,0,0-.18.31.44.44,0,0,0,0,.2.47.47,0,0,0,.09.17.49.49,0,0,0,.33.17l.13,0h.09l.07,0-.05.4.34,0,.09-.74a.76.76,0,0,1,0-.11.62.62,0,0,1,.09-.12.3.3,0,0,1,.18-.11l.06,0a.35.35,0,0,1,.07.09.92.92,0,0,1,0,.15.61.61,0,0,1-.19.32c-.11.12-.14.13-.14.13l-.06,0,.15.15h0l.14,0,.12-.1.09-.08a.65.65,0,0,0,.22-.4.37.37,0,0,0,0-.18.44.44,0,0,0-.22-.27.64.64,0,0,0-.18-.06h-.32l0-.34.83.1h0l.4.12-.15.56-.12,0h-.06l-.05,0h0l0,.05h0a.32.32,0,0,0,0,.18l.09.16,0,.07.08.06.13,0H41l0,0h0l0,0v0l.06-.2.42.12-.22.81.32.09L42,26.26h.06l.27.11-.57,1.49h0l.3.12h0l.57-1.51.15.07.17.08-.22.46a.44.44,0,0,0,0,.37.38.38,0,0,0,.19.23l.06,0,.12.06,0,0h.05l-.28.54h0l.29.15h0L44,27.12l.27.14h0l.08-.15-.7-.36Zm0,.22-.32.61,0,0h-.17l0,0,0-.06a.21.21,0,0,1,0-.12.27.27,0,0,1,0-.12l.22-.49.19.08Zm-2-.81-.15.55-.43-.12.16-.56Zm-2.51.45,0,0-.08,0h0a.11.11,0,0,1-.06,0l-.06-.06a.33.33,0,0,1,0-.22.3.3,0,0,1,.1-.21.28.28,0,0,1,.15-.08,0,0,0,0,0,0,0h0l0,0h.14l0,.34A.19.19,0,0,1,39.2,26.61Z"/><path class="cls-2" d="M49.12,31.74h0l0-.06v0h0l-1-1.42h0L48,30.14l-.13.12.15.18h0l.19.28,0,.12A.53.53,0,0,1,48,31a.32.32,0,0,1-.17.06H47.8l-.06,0L47.68,31V31l-.09-.13h0a.6.6,0,0,0-.2.22h-.12l-.1,0-.08,0L47,31l-.07-.05,0-.06v-.07a.19.19,0,0,1,.07-.16.2.2,0,0,1,.14-.06.38.38,0,0,1,.25.14l.17.18.06-.16h0l0-.06,0-.06-.09-.09-.07-.07-.06-.05v-.06l0-.09a.35.35,0,0,1,0-.11l.08-.09.06,0,.07,0h.06a.13.13,0,0,1,0,.06l0,.05-.09.08.21.24.09-.08a.24.24,0,0,0,.06-.08.25.25,0,0,0,0-.24.3.3,0,0,0-.06-.11l-.09-.09a.31.31,0,0,0-.13-.1h0l-.51-.52h0l-.1-.1L46.89,29h0l-.38-.36h0l-1.15-.9h0l-.11.13.62.48-.28.35,0,0-.05.05,0,0h0l0-.06s0,0,0-.08l0-.22-.11-.09-.19,0,0,.26,0,.18,0,.72a.47.47,0,0,0,0,.24l.11.1h.21l0-.12v-.39l0-.32,0,0,0,0,0,0a.27.27,0,0,0,.12,0h.09v.05l.32.25-.61.67.24.22h0l1.08-1.18.13.11.14.15-1.14,1.12.24.25,1.14-1.12.1.1a.31.31,0,0,0-.13.08.27.27,0,0,0-.08.1l0,.07,0,.23v.07a0,0,0,0,0,0,0h-.1a.43.43,0,0,0-.23.09.2.2,0,0,0-.08.12.38.38,0,0,0,0,.33.51.51,0,0,0,.09.13l.09.1a.68.68,0,0,0,.39.25l.1,0a.47.47,0,0,0,0,.21.53.53,0,0,0,.11.23l.08.11.09.12.09.06-.34.24.2.28,1.31-.92.09.13.18.35-.5.26-.06-.11,0,0h0l-.06,0H48.4a.76.76,0,0,0-.1.15,1.07,1.07,0,0,0-.06.17l0,.08a.22.22,0,0,0,0,.09l.06.13,0,0,0,0h0l0,0,.19-.1.2.38-.73.39h0l.16.3,1.42-.74.11.22.16-.08Zm.36,1.07-.5.26-.21-.39.51-.26Zm-.83-1.45-.67.47H47.8l-.06,0-.09,0-.07-.06a.38.38,0,0,1,0-.37l0,0v0l.08.07.07.05a.38.38,0,0,0,.41-.05l.08-.07.08-.12,0-.06,0,0Zm-2.53-2.81.11.08h0l.24.22-.36.38L45.78,29Z"/><polygon class="cls-2" points="47.81 33.4 47.53 34.03 47.53 34.03 47.59 34.17 47.71 34.21 48.02 33.66 47.96 33.53 47.81 33.4"/><path class="cls-2" d="M8.26,47.22l2.92-.9.18.58-2.92.91Z"/><path class="cls-2" d="M11.7,47.88,10,49.31h0l2-.74.2.53L9.3,50.19l-.25-.66,1.74-1.46h0l-2,.75-.2-.53,2.87-1.08Z"/><path class="cls-2" d="M12.28,49.38l.43.91c.36.77-.09,1.17-.91,1.55-1,.47-1.51.47-1.86-.27l-.42-.88Zm-2.09,1.68.12.24c.18.39.46.35,1.21,0s.92-.51.73-.93l-.12-.24Z"/><path class="cls-2" d="M10.61,52.92l2.69-1.47.29.54-2.68,1.47Z"/><path class="cls-2" d="M14.08,52.82l.41.65-2.16,2.31L12,55.24l.47-.47L12,54.09l-.63.22-.34-.54Zm-1.57,1.09.32.5,1-1h0Z"/><path class="cls-2" d="M15.41,54.81l-1.22,1.85h0l1.67-1.26.34.45L13.76,57.7l-.42-.56,1.26-1.89h0l-1.71,1.29-.34-.45L15,54.24Z"/><path class="cls-2" d="M14.83,58.93l2.26-2.06.41.46-2.25,2.06Z"/><path class="cls-2" d="M18.22,58.07l-.92,2h0l1.47-1.5.4.39L17,61.18l-.5-.49.95-2.06h0L16,60.16l-.41-.4,2.13-2.18Z"/><path class="cls-2" d="M18.43,61.11l-.07.07c-.18.22-.23.42,0,.62a.34.34,0,0,0,.52,0c.18-.21.14-.38-.08-.75s-.35-.84,0-1.22a.82.82,0,0,1,1.3-.09.81.81,0,0,1,.21,1.24l-.06.06-.46-.38c.19-.22.22-.4,0-.56a.32.32,0,0,0-.5.05c-.12.15-.15.27,0,.52l.23.46a.77.77,0,0,1-.07,1c-.41.5-.9.47-1.41,0a.82.82,0,0,1-.18-1.31l.08-.09Z"/><path class="cls-2" d="M22.47,61.56l-.29.41-.55-.39-1.48,2.08-.5-.36,1.48-2.08-.54-.39.29-.41Z"/><path class="cls-2" d="M21,64.23l1.65-2.57.51.33-1.64,2.57Z"/><path class="cls-2" d="M25,63.06l-.25.44-.58-.33-1.26,2.22-.53-.3,1.25-2.22-.58-.33.25-.44Z"/><path class="cls-2" d="M25.69,63.38l-.91,1.93c-.13.28-.16.51.1.64s.42-.06.55-.33l.91-1.93.56.26L26,65.88a.88.88,0,0,1-1.3.48.86.86,0,0,1-.46-1.31l.9-1.93Z"/><path class="cls-2" d="M28.84,64.7l-.18.47L28,64.93l-.92,2.39-.57-.22.91-2.39-.63-.24L27,64Z"/><path class="cls-2" d="M30.62,65.24l-.14.48-1.05-.31-.21.68,1,.3-.15.49-1-.3-.24.78,1.08.33-.15.49-1.67-.51L29,64.74Z"/><path class="cls-2" d="M32.77,65.65c.91.17.9.84.73,1.75s-.4,1.54-1.31,1.37-.9-.84-.73-1.75S31.86,65.48,32.77,65.65Zm-.5,2.68c.36.06.48-.23.63-1s.14-1.13-.21-1.19-.48.23-.63,1S31.92,68.26,32.27,68.33Z"/><path class="cls-2" d="M34,65.92l1.7.19-.06.5-1.08-.12-.08.72,1,.11-.06.5-1-.11L34.29,69,33.68,69Z"/><path class="cls-2" d="M38.66,66.19l0,.51-.66,0,0,2.56h-.62l0-2.55-.66,0v-.5Z"/><path class="cls-2" d="M40.5,66.07l0,.5-1.09.07,0,.72,1-.07,0,.51-1,.06,0,.82,1.13-.07,0,.51-1.75.1-.19-3Z"/><path class="cls-2" d="M42.13,66.9c-.06-.44-.18-.62-.45-.59s-.34.36-.23,1.22.28,1.07.54,1,.36-.16.28-.82l.61-.08c.09.66,0,1.24-.8,1.35s-1.12-.52-1.25-1.44-.09-1.59.82-1.71,1,.51,1.09,1Z"/><path class="cls-2" d="M42.81,65.76l.6-.13.25,1.14.7-.15-.24-1.15.6-.13.65,3-.61.13-.28-1.33-.71.16.29,1.32-.6.13Z"/><path class="cls-2" d="M45.67,65.07,47,66.86h0l-.6-2,.54-.16.88,2.92-.67.21L45.81,66h0L46.42,68l-.54.16L45,65.28Z"/><path class="cls-2" d="M48.08,64.18c.87-.34,1.22.23,1.56,1.09s.47,1.52-.39,1.86S48,66.9,47.7,66,47.23,64.52,48.08,64.18Zm1,2.53c.34-.14.28-.45,0-1.21s-.47-1-.81-.9-.28.45,0,1.21S48.75,66.84,49.09,66.71Z"/><path class="cls-2" d="M50.62,66.5l-1.34-2.75.56-.27L51,65.78l1-.48.22.46Z"/><path class="cls-2" d="M51.75,62.41c.8-.47,1.23,0,1.7.85s.69,1.43-.11,1.89-1.23-.05-1.69-.85S51,62.87,51.75,62.41Zm1.36,2.35c.32-.18.21-.48-.2-1.19s-.62-1-.93-.77-.21.48.2,1.19S52.8,64.94,53.11,64.76Z"/><path class="cls-2" d="M54.49,61.8c-.13-.18-.38-.37-.59-.22s-.17.48.26,1.12.75.94,1,.74a.45.45,0,0,0,0-.62l-.17-.25-.34.23-.26-.38.82-.56.94,1.36-.37.25-.16-.23h0a.69.69,0,0,1-.33.64c-.63.43-1.07,0-1.67-.82s-.69-1.41,0-1.86a.84.84,0,0,1,1.33.25Z"/><path class="cls-2" d="M55,60.27l1,.67h0l-.41-1.18.52-.42.55,1.94.75.93-.48.39-.75-.94-1.79-.94Z"/><path class="cls-2" d="M57,58.6l.8-.81a.72.72,0,0,1,1.13,0,.68.68,0,0,1,.18.9h0c.34-.26.55-.14,1,.31.24.22.36.32.49.29h0l-.47.48a.59.59,0,0,1-.28-.17l-.43-.4a.35.35,0,0,0-.54,0l-.23.23.92.91-.43.44Zm1.38.5.18-.18a.4.4,0,0,0,0-.65.37.37,0,0,0-.6,0l-.21.21Z"/><path class="cls-2" d="M59.11,56.25c.59-.71,1.17-.37,1.88.23s1.14,1.11.54,1.82-1.17.37-1.88-.23S58.51,57,59.11,56.25ZM61.19,58c.23-.27,0-.52-.6-1s-.9-.69-1.14-.41,0,.53.6,1.06S61,58.28,61.19,58Z"/><path class="cls-2" d="M60.48,54.49c.54-.76,1.14-.47,1.89.07s1.23,1,.69,1.77-1.14.47-1.9-.07S59.94,55.24,60.48,54.49Zm2.21,1.58c.21-.3,0-.53-.67-1s-1-.62-1.17-.32,0,.53.68,1S62.48,56.37,62.69,56.07Z"/><path class="cls-2" d="M61.25,53.49l.59-1a.72.72,0,0,1,1.09-.29.68.68,0,0,1,.39.83h0c.27-.33.49-.26,1.05.06.29.17.43.23.54.17h0l-.35.57a.54.54,0,0,1-.31-.1l-.51-.28c-.22-.12-.39-.11-.52.11l-.17.28,1.11.67-.32.53Zm1.46.16.13-.22a.4.4,0,0,0-.15-.63.37.37,0,0,0-.58.15L62,53.2Z"/><path class="cls-2" d="M62.67,51l1.09.54h0L63,50.31l.3-.6.8,1.33,2,0-.31.62h-1.4l.21.36.81.4-.27.55-2.74-1.36Z"/><path class="cls-2" d="M64,48l.47.19-.41,1,.66.27.39-.95.47.19-.39,1,.76.31.43-1,.47.19-.66,1.62-2.84-1.15Z"/><path class="cls-2" d="M64.62,46.14l.48.15-.34,1,.68.23.33-1,.48.16-.32,1,.78.26.35-1.08.48.16L67,48.71l-2.91-1Z"/><path class="cls-2" d="M17.93,14.78l-.29-.33-1.34,1.2h0l-1.54,1.57h0l-.32.37L14,17.5l-.34-.06a2.3,2.3,0,0,0-.74,0,.82.82,0,0,0-.5.27l-.14.18a.81.81,0,0,0,0,1,.86.86,0,0,0,.23.28l.14.1.15.07.15,0h0l-.28.36h0l-.08.11h0l-1,1.51h0l-1.48,2.54-.67,1.3L8.68,27l.35.13a.72.72,0,0,0-.25.07.69.69,0,0,0-.33.37l-.09.24a.78.78,0,0,0,0,.52.63.63,0,0,0,.42.39l.23.05.12,0,.28-.69-.19,0H9.07l-.07,0L8.89,28l-.05-.07v0h0l.09,0,.08,0,.77.31-.1.26v.15l0,.09.06.07,0,0H9.9a.62.62,0,0,0,.17,0l.36-.1a2,2,0,0,0,.36-.17.33.33,0,0,0,.17-.16l.1-.24,0-.09L11,27.87l-.55-.23.21-.51,1.52.6.27-.69L9.58,25.9l.15-.36L10,25l2.82,1.4.33-.67-2.82-1.39.29-.52h0l.68-1.18.64.38a.34.34,0,0,1,.13.1.27.27,0,0,1,.06.17l0,.09a.21.21,0,0,1-.16.07h0l-.58,0-.17.29.06.41,1,0h.36a8.56,8.56,0,0,0,1.05-.09,1.4,1.4,0,0,0,.51-.13l.17-.27-.11-.43-.75.15-.27,0-.61,0,0,0a.72.72,0,0,0,.09-.54.65.65,0,0,0-.34-.48L11.67,22l.16-.27h0L13,20.1l.36-.46.43.33L13,21.07l-.14.2a.56.56,0,0,0-.06.5.84.84,0,0,0,.34.42,1.73,1.73,0,0,0,.92.28h.36l.31,0,.42-.09.18-.26-.08-.47-.12.09s0,0-.13,0l-.45.05h-.15a2.3,2.3,0,0,1-.45-.05,1.35,1.35,0,0,1-.44-.18.47.47,0,0,1-.1-.09.36.36,0,0,1,0-.09s0-.05,0-.08a.55.55,0,0,1,.08-.14l.64-.93,1.69,1.32.46-.58-2.46-1.92.26-.33.32-.37,2.34,2.05.49-.56-2.35-2,.34-.39.54-.54h.17l.22.06a.28.28,0,0,1,.13.09.38.38,0,0,1,.15.32l0,.09-.05.08h0l-.05,0,0,0-.25.26,0,.06a1.24,1.24,0,0,0,.44.29,1.25,1.25,0,0,0,.46.09,1.17,1.17,0,0,0,.49-.11,1.89,1.89,0,0,0,.37-.28l.18-.17.07-.09.06-.07.12-.22.06-.18L19,18l.55-.5-2.08-2.31ZM10.26,27l-.2.51-.74-.3a.63.63,0,0,0-.22-.05l.21-.54Zm3.54-8.65h0l-.1.14,0,0h0l-.21.27-.21,0-.2-.08a.59.59,0,0,1-.11-.08l-.08-.07-.06-.1-.06-.12v-.15a1,1,0,0,1,.45-.06,4.07,4.07,0,0,1,.79.08Zm3.95-1.75-.13.14v.05a.8.8,0,0,1,0,.43l0,.18a.52.52,0,0,1-.07.13.55.55,0,0,1-.15.08.54.54,0,0,1-.45,0l-.1,0,.06-.1.08-.16a.76.76,0,0,0-.23-.79l0,0-.05,0-.09-.06a.9.9,0,0,0-.25-.08h-.05l.2-.2h0l.45-.41Z"/><path class="cls-2" d="M40.17,6.85,40,6.54A2.19,2.19,0,0,0,39.56,6a.74.74,0,0,0-.51-.23l-.27,0a.73.73,0,0,0-.3.06.89.89,0,0,0-.47.5,1,1,0,0,0-.09.35v.17l0,.16.06.15v0l-3.2.09-1.2.19L33,7l-.52-.28a3.32,3.32,0,0,0-1.13-.36,1.33,1.33,0,0,0-.54,0l-.24.06a1,1,0,0,0-.79.87.92.92,0,0,0,0,.41l0,.12.12.24-.54.15-.38.12L27.4,7.09l-.31.09-.19.4,1.45.92-.68.22-3.75,1.56-.24.13-1.56-1-.29.14-.24.38,1.27.68-1.19-.4-.29.14-.11.47,1.31.21-.28.15-2.66,1.7.24.37.4-.26.56.86A1.36,1.36,0,0,0,21,14a1.17,1.17,0,0,0,.47.31.69.69,0,0,0,.47,0l-.37,1.19.45.09.27-.17.4-1.55.59.92.62-.4-1.67-2.63.24-.15L23,11.3l1.49,2.79.65-.35-1.48-2.8.52-.27L25.68,10l.13.3-.67.28-.15.09-.11.08a.56.56,0,0,0-.09.61.52.52,0,0,0,.06.12,1,1,0,0,0,.28.25,1.48,1.48,0,0,0,.28.09h0a.41.41,0,0,0,0,.22,1.5,1.5,0,0,0,.06.22,1.11,1.11,0,0,0,.17.25.84.84,0,0,0,.56.24h0a1.61,1.61,0,0,0,.38-.1l.23-.08a1.66,1.66,0,0,0,.68-.52l.15-.18,0,0,.26.6.67-.28L27.43,9.29l.28-.11L28.28,9l.94,3,.71-.22-.93-3,.57-.18.53-.13.74,3,.72-.18-.74-3.06.5-.12.91-.14.14.87L32.09,9l-.15,0,0,.06,0,0a.31.31,0,0,0,0,.1,1,1,0,0,0,.38.51.87.87,0,0,0,.51.26h0l.25,0,.1,0h0a.22.22,0,0,0,0-.18L33,7.94l.55-.09L34,10.93l.74-.11-.48-3.08.68-.11,1.81,0V8h-.06l-.09,0h-.37A.5.5,0,0,0,36,8a1,1,0,0,0-.47.27.94.94,0,0,0-.25.7.94.94,0,0,0,.07.39.77.77,0,0,0,.24.32,1,1,0,0,0,.68.25h.25l.18,0h.06v.76l.74,0,0-1.49a.89.89,0,0,1,0-.22,1.86,1.86,0,0,1,.14-.25.66.66,0,0,1,.26-.23l.08,0a.53.53,0,0,1,.13.13.88.88,0,0,1,.06.28,1.22,1.22,0,0,1-.25.64,1.42,1.42,0,0,1-.21.28l-.15.08.39.3h.32l.2-.26.13-.18a1.4,1.4,0,0,0,.32-.86,1,1,0,0,0-.08-.37.94.94,0,0,0-.5-.48A.81.81,0,0,0,38,8h-.25l-.14,0-.14,0h0V7.56l1.69,0,.53,0-.22,3.18.73,0,.23-3.14.51,0,0-.45-.65-.06Zm-18,6.34-.05.25-.08.21a.24.24,0,0,1-.06.09h-.19a.46.46,0,0,1-.34-.26l-.58-.9.65-.41Zm4.95-1.57a1.21,1.21,0,0,1-.14.2,1.68,1.68,0,0,1-.27.29l-.13.09h-.25l-.14-.08a.32.32,0,0,1-.08-.12.33.33,0,0,1,0-.29.38.38,0,0,1,.24-.2l.52-.23L26.56,11l-.23.08-.45.19-.09,0-.07.06-.09-.05a.28.28,0,0,1-.16-.14l0-.13s0,0,0,0l.07,0,.11-.06,1-.42-.3-.71.41-.17.66,1.59A1.83,1.83,0,0,1,27.15,11.62Zm4-3.86-.52.13-.1-.18,0-.13a1,1,0,0,1,0-.27A.51.51,0,0,1,30.67,7l0,0a.35.35,0,0,1,.11-.08l.35,0a1.93,1.93,0,0,1,.38.09l.43.17.15.07.08,0,.17.1.19.12.11.07Zm5.47,1.58-.07.08-.12.09-.07,0-.09,0-.11-.1A.69.69,0,0,1,36.06,9a.65.65,0,0,1,.12-.41.4.4,0,0,1,.21-.16l.14.06h.21v.61A.33.33,0,0,1,36.65,9.34Zm2.56-2.26H38.8l-.06-.15-.06-.2a.33.33,0,0,1,0-.14V6.5s0-.06,0-.12l.06-.11.07-.08,0,0a1.1,1.1,0,0,1,.31.33,3.15,3.15,0,0,1,.38.6Z"/><polygon class="cls-2" points="58.95 7.61 58.14 7.35 57.96 7.92 58.76 8.18 58.95 7.61"/><path class="cls-2" d="M53.92,11.62l-.15-.08-.09-.06h0l-1.45-.82-.22.38.53.3-.56,1-.22-.1-.27.17-.2.09a1,1,0,0,1-.74,0l-.08-.06-.06-.05-.13-.17L50.17,12s0,0,0-.06a1.3,1.3,0,0,0,.87.1,1,1,0,0,0,.63-.57,1.18,1.18,0,0,0,.09-.38,1,1,0,0,0-.54-1L51,10.07A1.07,1.07,0,0,0,50.7,10a.67.67,0,0,0-.42.07.65.65,0,0,0-.33.3.72.72,0,0,0-.08.41.71.71,0,0,0,.16.34l-1-.36.34-.91.62.24.16-.41-2.62-1-4-1L43.44,8l1.4.36-.21.79,0,.09,0,.11,0,.06,0,0h0l-.08-.06a.68.68,0,0,1,0-.13l-.09-.45L44,8.73l-.39.14.22.87.43,1.32c.11.32.19.4.24.44l.29.08.41-.21L45,11.13l-.19-.41-.1-.26L44.59,10h.13a.53.53,0,0,0,.26,0l.11-.06,0,.05.8.2-.43,1.65.72.19.78-3L47.4,9l1.34.55-.3.76,0,.08-.05.11-.06.06,0,0h0l-.07-.08a.7.7,0,0,1,0-.13l0-.46-.3-.12-.41.11.12.89.29,1.35a.84.84,0,0,0,.18.46l.29.12.43-.16-.11-.25-.14-.44-.07-.27-.1-.52h.07l.06,0a.74.74,0,0,0,.26,0l.12-.06v.06l.63.23v.23a1.68,1.68,0,0,0,0,.29,1.63,1.63,0,0,0,.26.61,1.2,1.2,0,0,0,.5.4l.22.12.21.08.22,0h.22l.25,0,.18,0-.55,1,.64.37,1.54-2.72.35.21.41.26-1.67,2.63.63.39,1.67-2.62.52.3,1.68,1.27-.44.58-1.29-1-.06,0-.1,0a.29.29,0,0,0-.27.14.44.44,0,0,0-.06.21,1.64,1.64,0,0,0,0,.37l0,.36c0,.11,0,.16.09.19l.21.16.08,0h.12l.06,0,.36-.46.58.44-1.18,1.56.59.44,1.89-2.48.4.31.27-.35-2.81-2.14ZM46,9.69l-.71-.19.24-.94.71.19Zm4,1.78.09-.25s0,0,0,0a.41.41,0,0,0,.11.07l.37.18.19-.39L50.7,11,50.65,11a.22.22,0,0,1,0-.24l.08-.11a.13.13,0,0,1,.07,0l.08,0h.06l.08.09.06.14a.61.61,0,0,1-.05.42.62.62,0,0,1-.38.36.71.71,0,0,1-.48,0Z"/><rect class="cls-2" x="60.33" y="23.17" width="0.54" height="0.78" transform="translate(-3.66 33.48) rotate(-30.03)"/><path class="cls-2" d="M68,26.07l-.09-.22a.67.67,0,0,0-.19-.28.85.85,0,0,0-.61-.22h0a.82.82,0,0,0-.35.06l-.15.08-.13.1-.11.11,0,0-1.39-2.89-2.07-3.16L60.2,16.51l-.36.3,1,1.15-.55.47-.14.09a.2.2,0,0,1-.1,0H60v-.14l.18-.49-.19-.22-.39-.16-.1.2-.21.55-.3,1-.17.8,0,.28.2.23.42.12.14-.81.11-.5.14-.42.08.08.06.05a.57.57,0,0,0,.49.08h0l.23.16a.46.46,0,0,1,.16.26.45.45,0,0,1,0,.26c0,.16-.18.22-.28.29l-.32.16a1.78,1.78,0,0,1-.36.1l.06.3L60,21a3.31,3.31,0,0,0,.91-.35c.12-.07.43-.25.49-.53a1,1,0,0,0-.1-.82A1.51,1.51,0,0,0,61,19l-.15-.14.41-.35,1.18,1.4L63.81,22l-.35.23-.54-.82-.09-.11-.11-.08a.19.19,0,0,0-.2,0l-.12.06a.66.66,0,0,0-.23.24,1.74,1.74,0,0,0-.2.41,1.43,1.43,0,0,0-.09.44.61.61,0,0,0,.1.34l.14.22.06.08.26.18-.06.06a.78.78,0,0,1-.44.15h0a.4.4,0,0,1-.32-.14,1,1,0,0,1-.06-.28,2,2,0,0,1,0-.37l.09-.42c.07-.2.13-.35.17-.45s.06-.15.07-.16l.09-.19.05-.05,0,0L61.86,21l-.43-.08-.11.19-.13.31a3.78,3.78,0,0,0-.24.95,2.14,2.14,0,0,0,0,.57,1.24,1.24,0,0,0,.18.44l.13.21a1,1,0,0,0,.68.46l.15,0a1.09,1.09,0,0,0,.26,0,1.43,1.43,0,0,0,.44-.2L63,23.7l.11-.13v0a.37.37,0,0,0,0-.39L62.94,23l-.08-.09-.11-.1h0l-.06-.06-.17-.14v-.13l.1-.28.07-.11s0,0,0,0l0,0h0l.75,1.13.71-.47.31.42.81,1.69-.42.2a.18.18,0,0,0,0-.06.19.19,0,0,1,0-.08l-.17-.35a.62.62,0,0,0-.1-.16,1,1,0,0,0-.44-.31.89.89,0,0,0-.74.06,1.13,1.13,0,0,0-.32.22.79.79,0,0,0-.19.35,1,1,0,0,0,0,.73l.11.23.09.15,0,0-.69.32.32.67,1.35-.65a.59.59,0,0,1,.2-.06h.06l.22,0a.64.64,0,0,1,.33.14v.09a.35.35,0,0,1-.06.17,1.2,1.2,0,0,1-.23.17,1.23,1.23,0,0,1-.69,0,1.18,1.18,0,0,1-.34-.08l-.14-.1-.11.48.13.29.32.08.22.05a2.87,2.87,0,0,0,.39,0A1.21,1.21,0,0,0,65,27.3a.93.93,0,0,0,.3-.23.91.91,0,0,0,.23-.65.71.71,0,0,0-.09-.36l-.11-.23-.08-.12-.1-.1.49-.23.73,1.52h0l.18.5-3,1.1.25.69,3-1.08.19.48.41-.15-.22-.58.23-.3.22-.27a2.08,2.08,0,0,0,.35-.66A.77.77,0,0,0,68,26.07Zm-4-.69a.29.29,0,0,1-.24,0l-.1,0-.14-.08s0,0-.05-.05a.31.31,0,0,1,0-.09l0-.14a.68.68,0,0,1,.3-.28.64.64,0,0,1,.42-.06.55.55,0,0,1,.23.11v.15l.09.21Zm3.41,1.17a5.38,5.38,0,0,1-.38.61l-.16-.38-.17-.37.11-.12a1.31,1.31,0,0,1,.16-.13.35.35,0,0,1,.12-.07l.1,0h.25l.1,0,0,0A1.2,1.2,0,0,1,67.35,26.55Z"/><path class="cls-2" d="M37.87,48.72A10.33,10.33,0,1,1,48.2,38.39,10.34,10.34,0,0,1,37.87,48.72Zm0-20.42A10.09,10.09,0,1,0,48,38.39,10.11,10.11,0,0,0,37.87,28.3Z"/><line class="cls-2" x1="99.31" y1="3.53" x2="99.31" y2="76.25"/><path class="cls-6" d="M99.31,3.53c.2,6.06.3,12.12.38,18.18s.07,12.12.12,18.18,0,12.12-.12,18.18l-.14,9.09c-.08,3-.13,6.06-.24,9.09-.12-3-.17-6.06-.25-9.09l-.14-9.09C98.84,52,98.85,46,98.81,39.89s0-12.12.11-18.18S99.1,9.59,99.31,3.53Z"/></g></g></svg>